<svg width="1770" height="1265" viewBox="0 0 1770 1265" fill="none" xmlns="http://www.w3.org/2000/svg">
<g clip-path="url(#clip0_73_738)">
<path d="M1087.83 248.352L1087.83 854.539L713.855 854.541L713.854 248.352L1087.83 248.352Z" fill="#1E76B7"/>
<path d="M1087.83 854.54L713.854 854.542L713.854 248.352L1087.83 248.354L1087.83 854.54ZM871.741 916.092C871.741 899.426 885.125 885.906 901.639 885.906C918.157 885.906 931.536 899.426 931.536 916.092C931.536 932.752 918.157 946.295 901.639 946.296C885.126 946.273 871.741 932.752 871.741 916.092ZM1112.92 943.489L1112.97 943.491V217.019V217.014V216.867L1112.96 216.869C1112.88 200.281 1099.43 186.856 1082.81 186.856C1082.69 186.856 1082.6 186.868 1082.49 186.868V186.856L1014.73 186.858L817.073 186.857L718.875 186.858C702.283 186.868 688.836 200.292 688.746 216.868L688.74 216.869L688.74 943.482L688.785 943.483C688.774 943.798 688.74 944.109 688.74 944.437C688.74 960.691 702.402 973.871 719.259 973.871C719.507 973.871 719.751 973.838 719.999 973.832V973.871L1083.22 973.874V973.871C1099.62 973.871 1112.97 960.696 1112.97 944.437C1112.97 944.115 1112.93 943.799 1112.92 943.489Z" fill="black"/>
<path d="M901.639 885.906C918.157 885.906 931.536 899.426 931.536 916.092C931.537 932.752 918.157 946.295 901.639 946.296C885.126 946.273 871.741 932.752 871.741 916.092C871.741 899.426 885.126 885.906 901.639 885.906Z" fill="#3C464F"/>
<path d="M937.568 427.462C948.523 427.346 957.339 418.336 957.221 407.38C957.104 396.425 948.097 387.609 937.142 387.725C926.187 387.843 917.37 396.852 917.487 407.807C917.606 418.763 926.614 427.581 937.568 427.462Z" fill="#71CFEB"/>
<path d="M950.663 425.489C946.792 428.603 941.896 430.495 936.555 430.551C931.346 430.607 926.52 428.912 922.634 426.017C910.074 428.185 900.581 439.197 900.722 452.352C900.879 466.957 912.616 457.336 927.219 457.179L948.55 456.95C963.154 456.794 975.095 466.162 974.938 451.556C974.79 437.78 964.13 426.582 950.663 425.489Z" fill="#71CFEB"/>
<path d="M725.099 377.413L898.213 375.556L1071.33 373.701C1072.41 474.879 1073.5 576.057 1074.58 677.234L728.353 680.947C727.268 579.769 726.184 478.591 725.099 377.413Z" fill="white"/>
<path d="M784.975 503.635L899.573 502.406L1014.17 501.179C1014.33 516.052 1014.49 530.926 1014.65 545.8C938.251 546.619 861.852 547.438 785.454 548.257C785.294 533.383 785.135 518.509 784.975 503.635Z" fill="#C9D6DE"/>
<path d="M812.385 513.148L812.49 522.941L803.53 520.157L801.443 526.948L810.403 529.733L804.727 537.715L810.388 541.832L816.206 533.703L822.052 541.563L827.769 537.469L822.216 530.038L831.257 526.917L829.025 520.316L819.553 523.442L819.442 513.073L812.385 513.148Z" fill="#222B32"/>
<path d="M848.662 512.759L848.767 522.553L839.807 519.768L837.719 526.56L846.679 529.344L841.003 537.327L846.665 541.443L852.483 533.315L858.329 541.174L864.046 537.08L858.493 529.649L867.534 526.529L865.303 519.926L855.83 523.052L855.718 512.684L848.662 512.759Z" fill="#222B32"/>
<path d="M884.938 512.37L885.043 522.164L876.084 519.379L873.996 526.171L882.956 528.955L877.28 536.938L882.941 541.055L888.76 532.927L894.605 540.785L900.323 536.691L894.77 529.261L903.81 526.14L901.579 519.538L892.106 522.664L891.995 512.294L884.938 512.37Z" fill="#222B32"/>
<path d="M921.215 511.982L921.32 521.774L912.361 518.991L910.273 525.782L919.233 528.567L913.557 536.549L919.218 540.666L925.037 532.537L930.882 540.397L936.599 536.302L931.047 528.873L940.087 525.751L937.855 519.148L928.383 522.275L928.272 511.906L921.215 511.982Z" fill="#222B32"/>
<path d="M785.604 562.348L1014.8 559.891L1015.28 604.512L786.083 606.969L785.604 562.348Z" fill="#C9D6DE"/>
<path d="M813.498 567.63L813.603 577.423L804.643 574.638L802.555 581.43L811.515 584.215L805.839 592.197L811.501 596.313L817.319 588.185L823.164 596.044L828.881 591.95L823.329 584.52L832.369 581.398L830.138 574.796L820.665 577.924L820.554 567.553L813.498 567.63Z" fill="#222B32"/>
<path d="M849.774 567.241L849.879 577.034L840.919 574.249L838.832 581.042L847.792 583.826L842.116 591.807L847.778 595.923L853.596 587.796L859.441 595.655L865.159 591.561L859.606 584.13L868.646 581.009L866.415 574.408L856.942 577.534L856.831 567.165L849.774 567.241Z" fill="#222B32"/>
<path d="M886.051 566.852L886.156 576.645L877.196 573.86L875.108 580.652L884.068 583.437L878.392 591.419L884.054 595.536L889.872 587.407L895.717 595.266L901.435 591.173L895.882 583.742L904.923 580.621L902.691 574.02L893.219 577.145L893.108 566.777L886.051 566.852Z" fill="#222B32"/>
<path d="M832.041 624.885L900.878 624.148L969.715 623.411C969.851 636.098 969.988 648.786 970.124 661.474C924.232 661.966 878.34 662.458 832.449 662.95C832.313 650.262 832.176 637.574 832.041 624.885Z" fill="#00BCE9"/>
<path d="M912.529 629.628C912.326 629.63 912.086 629.641 911.809 629.662C911.532 629.684 911.274 629.714 911.035 629.753C911 629.957 910.975 630.188 910.959 630.447C910.962 630.706 910.964 630.936 910.966 631.139C910.969 631.342 910.98 631.573 911.002 631.831C911.005 632.09 911.026 632.33 911.065 632.551C911.305 632.586 911.564 632.611 911.841 632.626C912.119 632.642 912.368 632.649 912.589 632.647C912.792 632.644 913.032 632.632 913.309 632.611C913.567 632.59 913.807 632.56 914.028 632.52C914.063 632.298 914.088 632.058 914.104 631.799C914.101 631.54 914.098 631.31 914.096 631.106C914.094 630.903 914.082 630.672 914.061 630.414C914.058 630.155 914.037 629.924 913.998 629.722C913.776 629.687 913.527 629.662 913.25 629.647C912.972 629.631 912.732 629.625 912.529 629.628ZM900.73 637.454C901.727 637.443 902.469 637.722 902.955 638.29C903.441 638.839 903.689 639.556 903.698 640.442C903.708 641.31 903.475 642.023 903.001 642.583C902.527 643.142 901.791 643.426 900.794 643.436C899.797 643.447 899.056 643.178 898.569 642.629C898.102 642.081 897.864 641.372 897.855 640.504C897.845 639.618 898.077 638.886 898.551 638.309C899.006 637.75 899.733 637.465 900.73 637.454ZM885.361 637.868C886.635 637.855 887.582 638.307 888.201 639.223C888.82 640.121 889.138 641.392 889.156 643.035C889.174 644.678 888.883 645.965 888.283 646.895C887.684 647.825 886.747 648.297 885.473 648.311C884.199 648.324 883.252 647.873 882.633 646.956C882.032 646.039 881.723 644.759 881.706 643.115C881.688 641.472 881.979 640.185 882.578 639.255C883.16 638.345 884.087 637.882 885.361 637.868ZM909.907 635.694C909.872 635.843 909.846 636.018 909.83 636.221C909.814 636.406 909.806 636.591 909.808 636.776C909.81 636.96 909.822 637.154 909.842 637.357C909.863 637.542 909.892 637.708 909.931 637.854L911.731 637.836L911.86 649.884C912.064 649.919 912.295 649.944 912.554 649.96C912.794 649.975 913.006 649.982 913.191 649.981C913.394 649.978 913.625 649.966 913.883 649.945C914.123 649.924 914.344 649.894 914.546 649.856L914.394 635.647L909.907 635.694ZM925.968 635.19C925.395 635.196 924.87 635.285 924.392 635.456C923.914 635.609 923.491 635.816 923.125 636.079C922.758 636.323 922.428 636.603 922.136 636.92C921.863 637.237 921.635 637.554 921.454 637.87C921.45 637.555 921.418 637.159 921.357 636.68C921.298 636.219 921.238 635.85 921.18 635.574C920.976 635.539 920.782 635.513 920.598 635.496C920.431 635.48 920.246 635.473 920.043 635.474C919.84 635.477 919.637 635.489 919.434 635.509C919.25 635.529 919.056 635.559 918.854 635.598L919.006 649.807C919.209 649.842 919.44 649.867 919.699 649.882C919.958 649.898 920.189 649.905 920.392 649.903C920.595 649.901 920.826 649.889 921.084 649.868C921.324 649.846 921.545 649.816 921.748 649.778L921.67 642.576C921.661 641.708 921.764 640.959 921.979 640.329C922.176 639.717 922.447 639.216 922.794 638.824C923.14 638.433 923.544 638.143 924.003 637.953C924.463 637.763 924.951 637.666 925.468 637.661C926.354 637.652 927.004 637.959 927.417 638.581C927.83 639.186 928.043 640.143 928.057 641.455L928.146 649.708C928.349 649.743 928.58 649.768 928.839 649.785C929.079 649.8 929.301 649.807 929.504 649.805C929.707 649.802 929.938 649.79 930.196 649.769C930.455 649.748 930.685 649.718 930.888 649.679L930.791 640.677C930.772 638.85 930.369 637.469 929.583 636.536C928.798 635.621 927.593 635.172 925.968 635.19ZM872.561 629.889C872.358 629.892 872.127 629.904 871.869 629.924C871.629 629.946 871.408 629.976 871.205 630.015L871.384 646.633C871.392 647.372 871.5 647.989 871.708 648.486C871.917 648.982 872.198 649.376 872.552 649.669C872.906 649.96 873.314 650.168 873.777 650.292C874.24 650.416 874.74 650.475 875.275 650.47C875.589 650.466 875.931 650.444 876.299 650.403C876.668 650.381 876.982 650.322 877.239 650.226C877.231 649.47 877.14 648.769 876.967 648.125C876.82 648.163 876.636 648.193 876.415 648.214C876.212 648.235 876.027 648.246 875.861 648.248C875.621 648.25 875.39 648.225 875.167 648.172C874.964 648.137 874.778 648.037 874.61 647.874C874.461 647.727 874.339 647.506 874.243 647.213C874.148 646.918 874.097 646.512 874.091 645.995L873.92 629.986C873.716 629.951 873.485 629.925 873.226 629.91C872.986 629.894 872.764 629.887 872.561 629.889ZM885.337 635.625C884.229 635.637 883.262 635.841 882.435 636.237C881.608 636.634 880.922 637.168 880.375 637.84C879.828 638.51 879.421 639.299 879.154 640.206C878.905 641.114 878.786 642.094 878.798 643.147C878.809 644.199 878.958 645.176 879.244 646.078C879.513 646.98 879.927 647.76 880.488 648.419C881.049 649.078 881.748 649.597 882.583 649.976C883.418 650.336 884.389 650.511 885.497 650.498C886.605 650.487 887.572 650.283 888.398 649.886C889.226 649.508 889.912 648.983 890.459 648.312C891.006 647.641 891.413 646.852 891.68 645.943C891.929 645.037 892.048 644.057 892.036 643.004C892.025 641.952 891.876 640.975 891.589 640.073C891.321 639.171 890.907 638.391 890.346 637.732C889.785 637.073 889.087 636.554 888.252 636.176C887.416 635.797 886.445 635.613 885.337 635.625ZM899.5 650.375C899.531 650.374 899.562 650.374 899.594 650.375L902.752 650.397C903.694 650.405 904.342 650.555 904.696 650.847C905.05 651.138 905.23 651.561 905.236 652.116C905.244 652.854 904.835 653.477 904.01 653.983C903.184 654.473 902.033 654.725 900.555 654.741C900.057 654.746 899.595 654.714 899.169 654.645C898.763 654.594 898.401 654.487 898.086 654.325C897.789 654.18 897.556 653.979 897.387 653.722C897.218 653.466 897.131 653.134 897.127 652.728C897.12 652.082 897.326 651.526 897.746 651.059C898.132 650.612 898.716 650.384 899.5 650.375ZM900.709 635.46C899.785 635.47 898.965 635.608 898.248 635.874C897.531 636.14 896.925 636.507 896.432 636.974C895.956 637.423 895.593 637.953 895.341 638.565C895.089 639.177 894.966 639.834 894.974 640.535C894.983 641.385 895.176 642.149 895.552 642.829C895.929 643.489 896.424 644.029 897.038 644.447C896.525 644.84 896.114 645.288 895.806 645.79C895.516 646.291 895.375 646.884 895.382 647.567C895.388 648.102 895.522 648.553 895.784 648.92C896.028 649.268 896.336 649.56 896.708 649.796C896.065 650.154 895.544 650.64 895.145 651.254C894.745 651.849 894.549 652.525 894.557 653.282C894.57 654.556 895.079 655.483 896.082 656.063C897.086 656.644 898.538 656.924 900.44 656.904C901.529 656.892 902.544 656.76 903.483 656.51C904.404 656.279 905.203 655.938 905.882 655.488C906.56 655.055 907.09 654.532 907.471 653.919C907.853 653.324 908.04 652.648 908.031 651.891C908.019 650.728 907.64 649.818 906.894 649.161C906.148 648.504 904.954 648.166 903.31 648.147L899.626 648.13C898.795 648.121 898.258 647.989 898.015 647.733C897.772 647.495 897.649 647.21 897.646 646.878C897.642 646.527 897.768 646.193 898.023 645.876C898.259 645.578 898.506 645.354 898.763 645.204C899.374 645.363 900.059 645.438 900.815 645.431C901.646 645.422 902.411 645.294 903.11 645.046C903.81 644.817 904.415 644.478 904.927 644.03C905.422 643.6 905.804 643.079 906.074 642.466C906.345 641.854 906.476 641.17 906.468 640.412C906.463 639.932 906.403 639.509 906.288 639.14C906.173 638.772 906.013 638.432 905.806 638.12L908.299 638.094C908.333 637.872 908.359 637.65 908.375 637.429C908.391 637.207 908.398 636.994 908.396 636.791C908.391 636.366 908.35 635.979 908.273 635.629C907.515 635.637 906.824 635.746 906.198 635.956C905.573 636.147 905.077 636.393 904.71 636.692C904.227 636.328 903.642 636.029 902.956 635.796C902.288 635.563 901.539 635.451 900.709 635.46Z" fill="white"/>
<path d="M931.335 661.018C929.186 661.926 926.406 663.493 924.422 664.889C918.736 668.925 914.81 673.573 912.239 679.386C908.935 686.839 908.571 694.512 910.974 706.247C912.475 713.564 913.944 718.485 927.916 763.19C947.665 826.328 948.134 827.882 960.446 870.354C966.674 891.889 972.096 910.638 972.497 912.022L973.207 914.543L971.141 912.519C967.847 909.291 959.988 902.925 953.041 897.859C944.939 891.948 936.192 887.114 928.406 884.257C920.149 881.213 912.182 879.934 904.495 880.439C900.693 880.687 898.474 881.133 893.795 882.546C889.878 883.729 889.111 883.996 887.324 884.899C879.052 889.025 872.755 894.302 867.384 901.618C865.634 904.016 862.631 909.717 861.035 913.712C859.557 917.413 859.309 918.197 859.467 918.72C859.645 919.307 868.651 926.607 874.381 930.794C880.604 935.352 884.318 937.622 896.846 944.43C906.44 949.666 909.275 951.318 912.62 953.683C923.175 961.121 938.332 975.319 954.565 993.018C960.472 999.454 961.132 1000.21 970.722 1011.15C974.316 1015.26 979.012 1020.61 981.155 1023.06C1005.47 1050.79 1019.86 1065.03 1035.24 1076.64C1050.53 1088.17 1064.54 1095.08 1079.67 1098.52C1095.71 1102.17 1110.01 1102.3 1129.39 1098.97C1151.67 1095.15 1180.76 1086.78 1196.55 1079.65C1199.43 1078.35 1204.35 1075.79 1207.18 1074.11C1214.61 1069.7 1224.96 1062.04 1232.93 1055.04C1241.84 1047.23 1248.73 1039.49 1254.13 1031.25C1263.45 1016.97 1271.81 994.614 1274.05 977.842C1275.75 965.198 1274.61 955.034 1269.1 933.473C1267.62 927.692 1258.99 899.13 1255.26 887.64C1250.28 872.357 1245.75 858.686 1239.39 839.821C1235.57 828.481 1234.51 825.097 1234.72 824.862C1234.8 824.785 1234.88 824.431 1234.92 824.108C1234.97 823.59 1234.73 822.729 1233.35 818.68C1231.02 811.805 1229.78 808.961 1227.58 805.576C1225.24 801.972 1222.89 799.757 1219.35 797.78C1212.89 794.196 1204.42 792.965 1195.16 794.221C1192.75 794.567 1185.96 796.55 1184.19 797.448C1179.39 799.885 1175.71 802.936 1173.11 806.594C1171.26 809.194 1169.53 812.52 1168.17 816.081L1167.57 817.647L1167.37 816.583C1166.25 810.88 1166.04 810.009 1164.73 805.957C1163.4 801.842 1162.83 800.474 1161.41 798.012C1157.62 791.405 1151.51 786.415 1142.95 782.96C1137.84 780.886 1131.38 779.498 1126.37 779.387C1118.35 779.212 1111.67 781.386 1105.74 786.086C1099.42 791.091 1094.16 799.259 1092.93 805.964C1092.77 806.809 1092.6 807.5 1092.55 807.515C1092.5 807.529 1092.06 806.831 1091.57 805.941C1090.19 803.449 1087.6 799.456 1086.01 797.377C1082.3 792.491 1078.95 789.488 1074.42 786.964C1070.67 784.877 1067.44 783.742 1062.87 782.941C1051 780.833 1038.84 784.403 1030.34 792.49C1025.05 797.533 1022.05 803.319 1020.69 811.226L1020.22 813.875L1003.38 757.957C985.925 699.993 985.729 699.343 982.723 691.684C978.451 680.808 974.392 673.675 969.614 668.629C966.266 665.106 962.892 662.647 958.937 660.9C953.172 658.315 947.602 657.522 940.975 658.33C939.171 658.546 933.218 660.206 931.335 661.018ZM1154.59 793.982C1156.26 795.727 1159.02 799.548 1158.99 800.077C1159 800.213 1153.81 793.714 1153.03 792.617C1152.75 792.2 1153.67 793.012 1154.59 793.982Z" fill="#FEC299"/>
<path d="M797.609 829.015L789.947 896.173L782.284 963.331L797.609 829.015Z" fill="#FEFEFE"/>
<path d="M894.934 388.748C880.941 395.582 865.206 401.125 852.342 401.216C860.243 450.078 864.777 468.961 894.934 484.418C925.091 468.961 929.625 450.078 937.526 401.216C924.662 401.125 908.927 395.581 894.934 388.748Z" fill="#1C8ADB"/>
<path d="M895.742 395.688C883.816 401.512 870.406 406.237 859.443 406.314C866.177 447.956 870.04 464.049 895.742 477.222C921.443 464.049 925.307 447.956 932.041 406.314C921.077 406.236 907.667 401.512 895.742 395.688Z" fill="white"/>
<path d="M894.934 388.748C880.941 395.582 865.206 401.125 852.342 401.216C860.243 450.078 864.777 468.961 894.934 484.418C895.401 484.178 895.862 483.938 896.317 483.697C896.317 452.27 896.318 420.844 896.318 389.417C895.855 389.196 895.394 388.973 894.934 388.748Z" fill="black" fill-opacity="0.207843"/>
</g>
<defs>
<clipPath id="clip0_73_738">
<rect width="1770" height="1265" fill="white"/>
</clipPath>
</defs>
</svg>
