<svg width="1809" height="1397" viewBox="0 0 1809 1397" fill="none" xmlns="http://www.w3.org/2000/svg">
<g clip-path="url(#clip0_71_422)">
<path d="M1609.54 1170.14L1603.42 1171.53C1590.54 1172.78 1566.63 1173.91 1531.7 1174.94C1514.23 1175.45 1494.01 1175.93 1471.03 1176.39C1462.98 1176.65 1422.31 1177.28 1349.01 1178.26C1286.07 1179.01 1218.17 1179.56 1145.3 1179.91C1108.87 1180.08 1071.2 1180.21 1032.28 1180.29C1014.37 1180.39 953.203 1180.39 848.771 1180.3C750.199 1179.98 693.229 1179.74 677.86 1179.57C642.596 1179.35 609.143 1179.08 577.5 1178.77C514.215 1178.15 458.173 1177.36 409.374 1176.41C300.423 1174.09 255.178 1171.68 273.64 1169.18C281.754 1167.94 301.841 1166.79 333.901 1165.74C349.931 1165.22 368.954 1164.72 390.97 1164.24C398.592 1163.96 437.996 1163.31 509.183 1162.27C627.49 1160.74 770.985 1159.94 939.668 1159.88C1024.01 1159.91 1102.05 1160.12 1173.8 1160.52C1209.68 1160.72 1243.98 1160.97 1276.7 1161.26C1355.76 1162.07 1401.3 1162.61 1413.34 1162.88C1469.34 1163.74 1513.38 1164.69 1545.44 1165.74C1561.47 1166.27 1574.5 1166.82 1584.55 1167.39C1604.42 1168.87 1612.75 1169.78 1609.54 1170.14Z" fill="black" fill-opacity="0.254902"/>
<path d="M462.526 462.89C462.502 462.89 462.477 462.891 462.453 462.893L462.451 462.894C447.19 462.931 435.509 474.712 435.509 489.982L435.509 1035.9C435.509 1051.19 447.232 1062.91 462.524 1062.95L462.527 1062.95L1395.07 1062.92C1410.37 1062.91 1422.09 1051.19 1422.09 1035.9L1422.09 489.98C1422.09 474.709 1410.41 462.925 1395.14 462.925L1395.1 462.925C1395.09 462.925 1395.08 462.925 1395.07 462.925L462.526 462.89Z" fill="#44C5E5"/>
<path d="M462.527 429.261C429.199 429.261 401.877 456.652 401.877 489.98L401.878 1035.9C401.878 1069.22 429.2 1096.55 462.527 1096.55L1395.07 1096.58C1428.4 1096.55 1455.72 1069.23 1455.72 1035.9L1455.72 489.982C1455.72 456.655 1428.4 429.263 1395.07 429.263L462.527 429.297V429.261ZM462.527 463.994L1395.07 464.028C1409.76 463.994 1420.99 475.29 1420.99 489.98L1420.99 1035.9C1420.99 1050.58 1409.76 1061.81 1395.07 1061.81L462.527 1061.85C447.841 1061.81 436.612 1050.58 436.612 1035.9L436.612 489.982C436.612 475.292 447.841 463.996 462.527 463.996V463.994Z" fill="#222B32"/>
<path d="M842.052 1120.47L1015.55 1120.5C1018.22 1120.47 1020.38 1122.62 1020.38 1125.3C1020.38 1127.98 1018.22 1130.14 1015.55 1130.14L842.052 1130.17C839.375 1130.13 837.22 1127.98 837.22 1125.3C837.22 1122.63 839.375 1120.47 842.052 1120.47Z" fill="black"/>
<path d="M346.324 1106.57C346.324 1143.24 371.642 1172.77 403.08 1172.77L1454.52 1172.8C1485.96 1172.77 1511.27 1143.24 1511.27 1106.57L346.324 1106.61L346.324 1106.57Z" fill="#222B32"/>
<path d="M603.166 487.989L872.673 448.132L1142.18 408.274C1165.48 565.79 1188.77 723.306 1212.07 880.822L673.053 960.537C649.757 803.021 626.461 645.505 603.166 487.989Z" fill="white"/>
<path d="M911.799 541.261C905.273 548.165 896.489 553.019 886.384 554.514C876.531 555.971 866.948 554.01 858.833 549.533C835.601 556.901 820.472 580.225 824.153 605.114C828.239 632.743 847.979 611.469 875.605 607.383L915.96 601.417C943.587 597.329 968.641 611.979 964.555 584.349C960.7 558.288 937.598 539.836 911.799 541.261Z" fill="#71CFEB"/>
<path d="M887.502 548.399C908.227 545.334 922.592 525.978 919.527 505.252C916.462 484.526 897.109 470.158 876.384 473.223C855.659 476.288 841.293 495.644 844.358 516.369C847.425 537.095 866.779 551.464 887.502 548.399Z" fill="#71CFEB"/>
<path d="M723.471 671.999L901.879 645.615L1080.29 619.231C1083.71 642.386 1087.14 665.542 1090.56 688.697C971.622 706.287 852.684 723.878 733.745 741.468C730.321 718.311 726.896 695.155 723.471 671.999Z" fill="#C9D6DE"/>
<path d="M768.238 680.978L770.492 696.224L755.929 693.795L754.124 704.831L768.688 707.259L761.543 720.917L771.249 726.125L778.584 712.21L789.376 723.215L797.416 715.611L787.172 705.213L800.601 698.415L795.712 688.599L781.611 695.496L779.224 679.353L768.238 680.978Z" fill="#222B32"/>
<path d="M824.714 672.626L826.969 687.872L812.405 685.443L810.6 696.478L825.164 698.907L818.019 712.564L827.725 717.773L835.06 703.858L845.852 714.863L853.892 707.259L843.648 696.86L857.077 690.063L852.188 680.247L838.087 687.144L835.7 671.001L824.714 672.626Z" fill="#222B32"/>
<path d="M881.19 664.273L883.445 679.52L868.881 677.091L867.077 688.126L881.64 690.554L874.496 704.212L884.201 709.421L891.537 695.506L902.329 706.511L910.369 698.907L900.125 688.508L913.553 681.711L908.665 671.895L894.564 678.792L892.176 662.649L881.19 664.273Z" fill="#222B32"/>
<path d="M937.666 655.921L939.921 671.167L925.357 668.739L923.553 679.774L938.116 682.202L930.972 695.86L940.678 701.069L948.013 687.154L958.805 698.159L966.845 690.555L956.601 680.156L970.029 673.359L965.141 663.543L951.04 670.439L948.652 654.296L937.666 655.921Z" fill="#222B32"/>
<path d="M736.989 763.403L1093.81 710.635L1104.08 780.102L747.263 832.872L736.989 763.403Z" fill="#C9D6DE"/>
<path d="M781.605 765.683L783.86 780.929L769.296 778.501L767.492 789.536L782.056 791.964L774.911 805.622L784.617 810.831L791.952 796.916L802.744 807.921L810.784 800.317L800.54 789.918L813.968 783.121L809.08 773.305L794.979 780.201L792.591 764.059L781.605 765.683Z" fill="#222B32"/>
<path d="M838.082 757.331L840.337 772.577L825.773 770.149L823.968 781.184L838.532 783.612L831.388 797.27L841.093 802.479L848.429 788.564L859.221 799.569L867.26 791.965L857.016 781.566L870.445 774.769L865.557 764.953L851.455 771.849L849.068 755.706L838.082 757.331Z" fill="#222B32"/>
<path d="M894.558 748.979L896.813 764.225L882.249 761.797L880.444 772.832L895.008 775.26L887.864 788.918L897.569 794.126L904.905 780.212L915.697 791.216L923.736 783.612L913.492 773.214L926.921 766.416L922.033 756.6L907.931 763.497L905.544 747.354L894.558 748.979Z" fill="#222B32"/>
<path d="M822.741 850.992L929.909 835.144L1037.08 819.295C1040 839.048 1042.92 858.801 1045.84 878.554C974.395 889.12 902.95 899.686 831.505 910.252C828.584 890.499 825.663 870.746 822.741 850.992Z" fill="#00BCE9"/>
<path d="M949.244 841.199C948.928 841.246 948.556 841.316 948.129 841.408C947.702 841.501 947.306 841.603 946.941 841.716C946.931 842.041 946.941 842.407 946.971 842.813C947.031 843.216 947.084 843.575 947.131 843.891C947.178 844.207 947.245 844.565 947.333 844.963C947.393 845.365 947.477 845.735 947.585 846.071C947.968 846.073 948.376 846.057 948.812 846.022C949.247 845.987 949.637 845.944 949.982 845.893C950.299 845.846 950.67 845.777 951.097 845.684C951.495 845.596 951.863 845.497 952.199 845.389C952.205 845.035 952.193 844.655 952.163 844.248C952.103 843.846 952.05 843.487 952.003 843.171C951.956 842.854 951.889 842.497 951.801 842.099C951.741 841.697 951.659 841.342 951.555 841.034C951.201 841.027 950.807 841.041 950.372 841.076C949.936 841.112 949.56 841.153 949.244 841.199ZM932.519 855.922C934.071 855.692 935.287 855.968 936.166 856.748C937.041 857.5 937.581 858.566 937.785 859.946C937.984 861.297 937.774 862.459 937.155 863.432C936.535 864.405 935.449 865.006 933.896 865.235C932.344 865.465 931.131 865.204 930.256 864.452C929.409 863.696 928.886 862.642 928.687 861.291C928.483 859.911 928.688 858.721 929.304 857.719C929.895 856.751 930.967 856.152 932.519 855.922ZM908.646 859.849C910.629 859.556 912.201 860.057 913.362 861.354C914.519 862.623 915.287 864.536 915.665 867.095C916.044 869.653 915.865 871.721 915.129 873.299C914.393 874.876 913.033 875.811 911.05 876.105C909.066 876.398 907.494 875.896 906.333 874.599C905.2 873.298 904.445 871.368 904.067 868.81C903.688 866.251 903.867 864.183 904.603 862.606C905.315 861.061 906.662 860.142 908.646 859.849ZM946.452 851.218C946.428 851.456 946.426 851.736 946.444 852.056C946.457 852.348 946.486 852.637 946.528 852.925C946.571 853.212 946.63 853.512 946.705 853.824C946.776 854.107 946.858 854.36 946.949 854.581L949.752 854.167L952.526 872.923C952.851 872.934 953.216 872.924 953.623 872.893C954.001 872.866 954.334 872.832 954.621 872.789C954.937 872.743 955.294 872.675 955.693 872.587C956.062 872.503 956.401 872.409 956.708 872.304L953.437 850.185L946.452 851.218ZM971.384 847.002C970.493 847.134 969.693 847.384 968.984 847.753C968.27 848.094 967.656 848.508 967.141 848.995C966.621 849.454 966.167 849.962 965.78 850.518C965.421 851.071 965.134 851.613 964.918 852.144C964.846 851.655 964.712 851.044 964.515 850.309C964.322 849.603 964.151 849.041 964.001 848.622C963.676 848.612 963.368 848.613 963.076 848.627C962.814 848.637 962.524 848.665 962.208 848.711C961.892 848.758 961.577 848.819 961.266 848.895C960.982 848.966 960.687 849.054 960.379 849.158L963.65 871.278C963.975 871.289 964.341 871.278 964.748 871.248C965.154 871.217 965.516 871.178 965.832 871.131C966.148 871.085 966.505 871.017 966.903 870.929C967.273 870.845 967.611 870.751 967.919 870.647L966.261 859.436C966.061 858.085 966.062 856.895 966.262 855.867C966.438 854.871 966.754 854.031 967.211 853.347C967.668 852.662 968.235 852.123 968.911 851.73C969.587 851.336 970.328 851.08 971.132 850.961C972.512 850.756 973.591 851.096 974.367 851.98C975.14 852.835 975.677 854.283 975.979 856.324L977.88 869.173C978.204 869.184 978.57 869.174 978.977 869.143C979.355 869.117 979.702 869.08 980.018 869.034C980.334 868.987 980.691 868.919 981.089 868.831C981.488 868.743 981.841 868.647 982.148 868.542L980.076 854.529C979.655 851.683 978.733 849.616 977.308 848.329C975.888 847.07 973.914 846.628 971.384 847.002ZM886.986 850.142C886.67 850.189 886.312 850.256 885.914 850.345C885.545 850.429 885.206 850.523 884.898 850.627L888.725 876.498C888.895 877.648 889.195 878.588 889.626 879.317C890.057 880.047 890.58 880.601 891.194 880.98C891.808 881.359 892.489 881.596 893.238 881.691C893.986 881.786 894.777 881.772 895.611 881.648C896.099 881.576 896.627 881.469 897.193 881.326C897.764 881.213 898.24 881.054 898.621 880.851C898.447 879.672 898.156 878.599 897.748 877.631C897.527 877.723 897.246 877.808 896.905 877.888C896.593 877.964 896.308 878.02 896.049 878.059C895.676 878.114 895.31 878.124 894.952 878.089C894.627 878.078 894.317 877.962 894.02 877.742C893.756 877.546 893.518 877.229 893.306 876.79C893.094 876.351 892.929 875.73 892.81 874.925L889.124 850.002C888.799 849.991 888.434 850.001 888.027 850.032C887.649 850.059 887.302 850.095 886.986 850.142ZM908.129 856.356C906.404 856.611 904.94 857.136 903.735 857.931C902.531 858.726 901.574 859.705 900.865 860.868C900.156 862.03 899.69 863.347 899.467 864.82C899.273 866.288 899.297 867.841 899.539 869.479C899.781 871.118 900.222 872.61 900.862 873.954C901.473 875.303 902.286 876.431 903.301 877.339C904.316 878.246 905.516 878.906 906.898 879.318C908.277 879.702 909.829 879.766 911.553 879.511C913.278 879.256 914.743 878.731 915.947 877.936C917.156 877.17 918.114 876.205 918.824 875.043C919.533 873.881 919.999 872.563 920.222 871.091C920.416 869.623 920.392 868.07 920.15 866.431C919.907 864.793 919.467 863.301 918.827 861.956C918.216 860.607 917.403 859.479 916.388 858.572C915.372 857.665 914.173 857.005 912.79 856.593C911.408 856.18 909.854 856.101 908.129 856.356ZM933.359 876.329C933.408 876.321 933.457 876.315 933.507 876.308L938.435 875.668C939.906 875.48 940.948 875.575 941.562 875.954C942.176 876.333 942.547 876.954 942.675 877.817C942.845 878.967 942.34 880.025 941.162 880.993C939.979 881.931 938.237 882.571 935.938 882.911C935.162 883.026 934.434 883.074 933.756 883.057C933.111 883.064 932.525 882.975 931.998 882.788C931.504 882.626 931.098 882.363 930.78 881.999C930.462 881.635 930.256 881.137 930.162 880.504C930.013 879.498 930.216 878.587 930.771 877.77C931.277 876.99 932.14 876.509 933.359 876.329ZM932.06 852.817C930.623 853.03 929.373 853.42 928.312 853.988C927.25 854.557 926.384 855.258 925.714 856.091C925.069 856.891 924.615 857.796 924.353 858.804C924.091 859.812 924.041 860.862 924.202 861.954C924.398 863.277 924.862 864.427 925.594 865.406C926.322 866.356 927.209 867.091 928.255 867.612C927.54 868.335 926.995 869.12 926.621 869.969C926.276 870.813 926.182 871.766 926.339 872.83C926.463 873.664 926.768 874.338 927.256 874.854C927.71 875.344 928.252 875.734 928.883 876.023C927.957 876.718 927.248 877.586 926.756 878.629C926.26 879.642 926.099 880.738 926.273 881.917C926.567 883.9 927.557 885.237 929.246 885.927C930.934 886.618 933.259 886.744 936.219 886.306C937.916 886.055 939.469 885.634 940.88 885.044C942.266 884.486 943.44 883.784 944.401 882.937C945.367 882.118 946.082 881.19 946.545 880.152C947.013 879.143 947.159 878.049 946.985 876.871C946.717 875.06 945.932 873.722 944.629 872.857C943.326 871.992 941.391 871.72 938.824 872.041L933.077 872.803C931.779 872.966 930.914 872.873 930.48 872.526C930.051 872.208 929.799 871.79 929.722 871.272C929.641 870.726 929.766 870.179 930.096 869.631C930.402 869.116 930.739 868.713 931.107 868.424C932.094 868.542 933.177 868.514 934.356 868.34C935.649 868.149 936.814 867.786 937.852 867.25C938.893 866.744 939.765 866.086 940.468 865.277C941.146 864.501 941.631 863.607 941.922 862.595C942.212 861.582 942.271 860.487 942.096 859.308C941.986 858.561 941.802 857.912 941.544 857.363C941.287 856.814 940.964 856.318 940.576 855.876L944.456 855.302C944.463 854.949 944.455 854.597 944.432 854.248C944.41 853.899 944.376 853.566 944.329 853.25C944.231 852.589 944.084 851.994 943.889 851.465C942.71 851.639 941.655 851.956 940.725 852.417C939.79 852.849 939.069 853.338 938.562 853.883C937.73 853.418 936.754 853.078 935.635 852.862C934.545 852.641 933.353 852.626 932.06 852.817Z" fill="white"/>
<path d="M1079.95 0.820251L1054.19 0.820343L1052.67 189.99C1053.31 197.843 1057.6 202.17 1065.55 202.971C1073.34 202.251 1077.63 197.994 1078.42 190.199L1079.95 0.820251Z" fill="black"/>
<path d="M1006.78 241.068C1006.78 270.863 1030.93 295.018 1060.73 295.019V295.02C1090.52 295.019 1114.68 270.864 1114.68 241.068V241.069C1114.68 211.271 1090.52 187.117 1060.73 187.116V187.118C1030.93 187.116 1006.78 211.27 1006.78 241.067M1032.53 241.067V241.068C1032.53 225.493 1045.15 212.868 1060.73 212.868V212.869C1076.3 212.868 1088.93 225.493 1088.93 241.068V241.069C1088.93 256.642 1076.3 269.267 1060.73 269.267V269.268C1045.15 269.267 1032.53 256.641 1032.53 241.067Z" fill="black"/>
<path d="M1048.26 291.997V291.998L1048.26 291.925L1046.77 553.049L1060.27 540.262C1025.76 538.592 1001.5 536.446 992.121 525.932V525.933C983.121 515.845 984.871 494.003 989.122 461.436C990.042 454.384 985.072 447.922 978.021 447.002C970.97 446.081 964.507 451.051 963.587 458.103V458.104C960.114 484.711 954.141 522.044 972.905 543.076V543.077C991.288 563.679 1030.28 564.593 1059.02 565.983C1062.53 566.153 1065.95 564.884 1068.5 562.47C1071.05 560.056 1072.5 556.706 1072.52 553.196V553.198L1074.02 292.072L1074.02 291.999V291.997C1074.02 284.885 1068.25 279.121 1061.14 279.121C1054.03 279.121 1048.26 284.885 1048.26 291.997Z" fill="black"/>
<path d="M962.052 473.064L966.537 410.686L971.022 348.309C990.587 394.057 1010.15 439.804 1029.72 485.552L962.052 473.064Z" fill="black"/>
<path d="M1104.86 566.266C1103.09 515.874 1101.32 465.481 1099.55 415.089C1076.53 418.285 1053.5 421.481 1030.48 424.677L1104.86 566.266Z" fill="white"/>
</g>
<defs>
<clipPath id="clip0_71_422">
<rect width="1809" height="1397" fill="white"/>
</clipPath>
</defs>
</svg>
