<svg width="500" height="500" viewBox="0 0 500 500" fill="none" xmlns="http://www.w3.org/2000/svg">
<path d="M250 400C332.842 400 399.999 332.843 399.999 250C399.999 167.157 332.842 100 250 100C167.157 100 100 167.157 100 250C100 332.843 167.157 400 250 400Z" fill="#00A995"/>
<path d="M250.561 100.01V400C333.147 399.7 400 332.665 400 250.01C400 167.353 333.142 100.32 250.561 100.02V100.01Z" fill="#00A99D"/>
<path d="M190.91 209.52C190.91 201.88 193.362 194.138 198.269 186.297C203.173 178.455 210.333 171.961 219.744 166.813C229.154 161.667 240.133 159.091 252.68 159.091C264.34 159.091 274.637 161.244 283.565 165.546C292.492 169.85 299.387 175.701 304.255 183.1C309.12 190.501 311.553 198.542 311.553 207.228C311.553 214.065 310.166 220.058 307.392 225.204C304.617 230.352 301.317 234.795 297.498 238.535C293.677 242.275 286.82 248.57 276.928 257.415C274.194 259.91 272.001 262.102 270.353 263.99C268.705 265.881 267.478 267.609 266.674 269.178C265.868 270.745 265.244 272.315 264.804 273.882C264.361 275.451 263.697 278.206 262.813 282.147C261.285 290.512 256.5 294.694 248.458 294.694C244.274 294.694 240.755 293.327 237.901 290.592C235.045 287.859 233.618 283.796 233.618 278.406C233.618 271.65 234.662 265.799 236.755 260.852C238.845 255.906 241.62 251.562 245.079 247.823C248.537 244.083 253.202 239.64 259.074 234.492C264.22 229.989 267.941 226.59 270.234 224.298C272.525 222.006 274.456 219.453 276.024 216.637C277.592 213.823 278.377 210.767 278.377 207.469C278.377 201.035 275.983 195.606 271.199 191.182C266.412 186.76 260.239 184.547 252.68 184.547C243.831 184.547 237.316 186.779 233.135 191.243C228.952 195.706 225.414 202.282 222.518 210.968C219.783 220.058 214.595 224.6 206.955 224.6C202.45 224.6 198.65 223.013 195.554 219.835C192.457 216.66 190.91 213.221 190.91 209.52ZM249.784 341.74C244.878 341.74 240.594 340.151 236.936 336.974C233.275 333.797 231.447 329.356 231.447 323.643C231.447 318.577 233.215 314.314 236.755 310.855C240.293 307.398 244.636 305.667 249.784 305.667C254.851 305.667 259.113 307.397 262.573 310.855C266.03 314.314 267.761 318.577 267.761 323.643C267.761 329.275 265.95 333.698 262.332 336.914C258.712 340.13 254.528 341.74 249.784 341.74Z" fill="white"/>
</svg>
