<svg width="1080" height="811" viewBox="0 0 1080 811" fill="none" xmlns="http://www.w3.org/2000/svg">
<path d="M1009.21 41.2212L1007.71 702.499L599.749 701.575L601.245 40.2975L1009.21 41.2212Z" fill="#00B6B9"/>
<path d="M800.748 294.107C805.425 280.421 809.501 271.197 812.975 266.434C814.345 264.462 815.817 262.822 817.391 261.515L819.849 259.864L822.499 258.835L825.36 258.491C829.666 258.411 835.413 261.095 842.603 266.544C846.955 269.387 856.789 278.727 872.104 294.564L840.181 275.173L800.748 294.107Z" fill="black" fill-opacity="0.996078"/>
<path d="M860.083 390.147L860.082 390.147L860.175 389.932C865.457 373.634 868.81 364.291 869.962 361.775C871.253 358.959 872.324 356.365 873.657 354.242C878.48 346.559 881.609 341.349 882.907 338.511C885.619 332.582 887.535 327.781 888.594 324.081C890.897 316.041 892.001 310.229 892.153 306.652C892.251 304.315 892.344 302.054 892.185 299.853L891.791 296.635C891.422 294.543 890.867 292.562 890.103 290.699C888.57 286.965 886.268 283.84 883.64 280.917C881.623 278.671 877.774 275.684 871.457 272.734C867.171 270.732 862.173 269.635 856.646 269.022C850.406 268.33 842.101 268.785 831.676 268.903C828.131 268.941 825.655 267.732 823.997 267.475C819.714 266.81 823.305 285.194 822.248 278.068C817.567 283.033 817.221 279.981 816.003 282.851C814.045 287.465 804.882 281.066 806.322 293.597L823.392 345.682L860.083 390.147Z" fill="black" fill-opacity="0.996078"/>
<path d="M845.625 426.019L845.624 426.021L845.624 426.021L869.351 422.102L867.509 410.449L863.076 382.413L864.968 375.527C859.906 374.162 856.146 372.082 853.862 369.146C851.722 366.394 850.454 362.685 850.178 358.129C849.942 354.248 850.266 351.497 850.709 349.848C850.995 348.779 851.204 347.695 851.58 346.669C853.989 340.108 855.188 336.639 855.078 336.229C855.574 334.521 855.824 332.263 854.947 329.701C852.933 323.819 849.749 321.523 846.185 322.145C845.245 322.308 843.936 323.083 842.099 324.597C841.474 325.112 839.109 327.996 834.994 333.349C833.992 334.653 833.157 335.022 832.94 334.468C832.525 333.408 832.553 332.22 832.667 330.99C833.49 322.059 833.949 315.974 833.989 312.743C834.061 306.816 833.713 303.388 833.606 302.357C832.99 296.41 830.773 290.629 825.376 286.253C817.439 279.818 810.277 278.628 804.854 281.428C798.527 291.231 795.031 297.859 793.946 301.188C792.744 304.878 792.814 308.764 794.572 312.986C784.269 322.68 779.162 328.928 778.301 331.473C777.238 334.618 779.489 336.818 785.967 338.434C783.792 342.892 782.864 345.791 782.864 347.143C782.864 348.653 783.791 350.028 785.966 351.282C784.206 351.181 783.239 352.219 783.201 354.394C783.168 356.32 783.747 359.637 784.802 364.344C783.213 369.197 782.426 372.85 782.778 375.263C783.119 377.597 783.944 379.024 784.921 379.604C786.22 381.105 790.136 382.683 796.666 384.342L808.658 383.131L810.831 407.389L837.53 427.866L837.809 425.218L841.584 435.312L845.625 426.019Z" fill="#FFC4A4"/>
<path d="M814.304 318.288L813.996 317.675C812.688 314.957 811.397 313.009 810.122 311.831C809.837 311.573 809.539 311.338 809.23 311.126C809.087 310.997 808.602 310.719 807.774 310.292C806.935 309.886 805.694 309.444 804.051 308.968C806.161 310.507 807.791 311.807 808.938 312.869C810.07 313.878 811.858 315.685 814.304 318.288Z" fill="black" fill-opacity="0.996078"/>
<path d="M809.366 320.435L805.445 313.405C804.461 313.784 803.775 314.193 803.387 314.63C802.981 315.023 802.475 315.859 801.869 317.14L809.366 320.435Z" fill="white" fill-opacity="0.996078"/>
<path d="M805.512 313.394L805.414 316.592L802.08 317.153C802.278 316.393 802.456 315.832 802.614 315.47C802.778 315.116 802.884 314.913 802.932 314.862C803.012 314.737 803.099 314.623 803.194 314.518C803.29 314.415 803.393 314.32 803.503 314.234C803.551 314.182 803.731 314.072 804.044 313.905C804.363 313.744 804.852 313.574 805.512 313.394Z" fill="black" fill-opacity="0.996078"/>
<path d="M800.504 367.26C844.332 324.243 844.332 324.242 800.504 367.26Z" fill="white" fill-opacity="0.996078"/>
<path d="M795.601 294.633L835.941 316.654C836.445 321.075 836.656 324.307 836.574 326.349C836.389 329.128 836.037 330.863 835.52 331.552C834.57 333.883 831.388 335.371 825.974 336.015L785.698 322.25C793.02 322.834 799.612 323.11 805.475 323.08C807.357 323.04 809.05 322.92 810.554 322.72L812.628 322.345C813.902 322.049 814.906 321.639 815.64 321.117L816.499 320.229C816.862 319.631 816.99 318.946 816.884 318.175L816.589 316.985C816.288 316.161 815.832 315.318 815.222 314.455C813.947 312.685 812.369 311.113 810.488 309.737C809.574 309.071 808.663 308.523 807.755 308.093L806.437 307.57C805.333 307.22 804.385 307.16 803.593 307.39L802.577 307.856C801.953 308.276 801.415 308.878 800.963 309.661C799.838 310.764 798.838 315.584 797.962 324.12L783.195 322.821L795.601 294.633Z" fill="black" fill-opacity="0.996078"/>
<path d="M802.996 284.567L877.832 345.877L895.271 322.197L895.057 312.064L900.244 282.231C900.361 275.476 895.665 267.889 886.156 259.47C882.928 256.699 879.138 254.321 874.786 252.336C870.413 250.38 865.533 249.175 860.144 248.722C849.835 247.85 838.412 249.179 825.875 252.709C821.528 254.005 818.115 255.48 815.635 257.132C813.16 258.585 811.468 261.035 810.561 264.483L806.361 265.724L798.617 280.958L802.996 284.567Z" fill="black"/>
<path d="M994.734 679.784L614.227 679.785V63.0129L994.733 63.0156L994.734 679.784ZM774.871 742.411C774.871 725.454 788.489 711.697 805.291 711.697C822.098 711.698 835.711 725.454 835.711 742.411C835.71 759.362 822.098 773.141 805.291 773.141C788.489 773.118 774.871 759.362 774.871 742.411ZM1020.26 770.285L1020.32 770.287L1020.32 31.1343V31.1284V30.979L1020.3 30.9807C1020.22 14.1032 1006.53 0.444458 989.626 0.444458C989.505 0.444458 989.407 0.455566 989.298 0.455566V0.444458L920.362 0.445862L719.248 0.444275L619.335 0.445374C602.453 0.455274 588.771 14.1137 588.679 30.9783L588.674 30.9802L588.674 770.28L588.72 770.281C588.708 770.601 588.674 770.917 588.674 771.251C588.674 787.787 602.574 801.199 619.726 801.199C619.979 801.199 620.226 801.165 620.479 801.159V801.199L990.045 801.201V801.199C1006.73 801.199 1020.31 787.794 1020.31 771.251C1020.32 770.923 1020.28 770.602 1020.26 770.285Z" fill="black"/>
<path d="M805.29 709.676C823.204 709.676 837.712 724.338 837.712 742.411C837.712 760.477 823.204 775.163 805.29 775.163C787.384 775.139 772.869 760.477 772.869 742.411C772.869 724.339 787.384 709.676 805.29 709.676Z" fill="#3E3131"/>
<path d="M476.618 679.784L96.1107 679.785L96.1108 63.0129L476.618 63.0157L476.618 679.784ZM256.755 742.411C256.755 725.454 270.373 711.698 287.175 711.698C303.982 711.699 317.595 725.454 317.595 742.411C317.594 759.362 303.982 773.141 287.175 773.141C270.373 773.118 256.755 759.362 256.755 742.411ZM502.148 770.285L502.2 770.287L502.2 31.1344V31.1285V30.9791L502.188 30.9808C502.108 14.1033 488.415 0.44458 471.51 0.44458C471.389 0.44458 471.292 0.455688 471.182 0.455688V0.44458L402.246 0.445923L201.132 0.444275L101.219 0.445129C84.3368 0.455429 70.6552 14.1138 70.5634 30.9783L70.5577 30.9802L70.5576 770.28L70.6037 770.28C70.5922 770.601 70.5576 770.917 70.5576 771.251C70.5577 787.787 84.4577 801.198 101.61 801.199C101.863 801.199 102.11 801.165 102.363 801.159V801.199L471.929 801.201V801.199C488.616 801.199 502.194 787.794 502.194 771.251C502.2 770.923 502.16 770.602 502.148 770.285Z" fill="black"/>
<path d="M491.094 41.2213L489.598 702.499L81.6328 701.575L83.1291 40.2975L491.094 41.2213Z" fill="#00B6B9"/>
<path d="M287.174 709.677C305.088 709.677 319.596 724.338 319.596 742.411C319.596 760.477 305.087 775.163 287.174 775.163C269.267 775.139 254.752 760.477 254.753 742.411C254.753 724.339 269.267 709.677 287.174 709.677Z" fill="#3E3131"/>
<path d="M1163.91 798.562L1158.46 800.207C1158.66 800.617 1144.52 801.647 1116.03 803.3C1102.92 803.938 1087.35 804.544 1069.32 805.117C1033.26 806.262 987.369 807.276 931.65 808.159C875.544 809.042 815.011 809.691 750.051 810.107C666.912 810.525 615.701 810.706 596.417 810.65C560.616 810.683 523.707 810.658 485.692 810.575C465.534 810.579 414.745 810.292 333.326 809.713C301.888 809.447 272.065 809.131 243.856 808.765C187.437 808.033 137.476 807.101 93.9718 805.97C-3.15813 803.234 -43.4937 800.39 -27.0351 797.439C-19.8009 795.97 -1.89315 794.614 26.6882 793.372C40.9788 792.752 57.9377 792.16 77.5651 791.596C84.3595 791.272 119.488 790.497 182.951 789.271C288.421 787.46 416.347 786.517 566.727 786.44C641.917 786.479 711.493 786.734 775.456 787.205C852.953 787.89 897.767 788.366 909.899 788.632C937.67 789.031 964.037 789.484 989.001 789.99C1046.74 791.307 1078.18 792.131 1083.33 792.463C1100.29 793.055 1114.58 793.676 1126.2 794.325C1149.44 795.624 1162.02 797.036 1163.91 798.562Z" fill="black" fill-opacity="0.439216"/>
<path d="M242.23 445.006L222.52 393.882C208.739 372.015 201.246 354.128 200.042 340.219C198.774 329.679 199.306 319.097 201.639 308.474C202.412 305.025 203.378 301.707 204.538 298.523L206.419 293.896C207.769 290.895 209.307 288.129 211.032 285.599C218.743 273.907 232.209 267.428 251.429 266.16C256.93 265.821 261.949 266.24 266.485 267.417L300.328 281.859L242.23 445.006Z" fill="black" fill-opacity="0.996078"/>
<path d="M614.728 493.985L610.74 489.174C598.757 474.67 589.87 464.922 584.08 459.931C576.753 453.409 570.837 450.264 566.331 450.496C564.043 450.64 562.438 450.976 561.517 451.503C560.297 452.041 559.167 452.751 558.127 453.633C554.993 456.445 552.719 460.053 551.305 464.454C548.416 474.658 549.511 483.23 554.59 490.17C556.555 492.878 559.331 494.698 562.917 495.631C565.485 496.401 569.953 496.429 576.321 495.714L601.413 515.021L614.728 493.985Z" fill="#FFC4A4"/>
<path d="M866.247 389.55L838.157 402.646L805.032 392.075L787.751 409.097L757.516 479.417L739.851 665.627L810.96 677.049L843.752 677.223L874.455 675.032L911.279 588.134L905.388 417.041L866.247 389.55Z" fill="white"/>
<path d="M139.473 619.087L137.534 619.492C133.558 620.185 130.029 621.395 126.946 623.119C125.951 623.733 125.055 624.461 124.259 625.304L123.157 626.675C122.478 627.654 121.936 628.791 121.53 630.085C121.132 631.389 120.871 632.85 120.746 634.469L120.642 636.994C120.635 638.748 120.727 640.618 120.918 642.603C121.346 647.506 122.708 655.254 125.005 665.846L149.776 632.613L139.473 619.087Z" fill="#FFC4A4"/>
<path d="M174.254 561.686L178.193 575.776L164.985 595.273L163.54 588.823L174.254 561.686Z" fill="#FFF201"/>
<path d="M259.089 416.833L258.733 416.835C243.95 415.786 216.456 421.161 176.252 432.96C167.91 435.52 161.252 440.74 156.28 448.619C153.109 455.884 150.784 465.176 149.305 476.493C147.277 489.99 145.446 508.161 143.812 531.007C136.917 566.706 133.201 590.725 132.664 603.064C131.958 616.461 135.042 625.996 141.914 631.669C132.227 643.415 124.012 656.859 117.271 672.003C113.974 678.515 111.718 688.706 110.501 702.575L272.321 702.576L268.793 691.162L264.219 623.091C272.965 619.954 278.277 615.819 280.155 610.685C280.792 609.369 281.488 607.325 282.243 604.551C285.186 589.072 287.031 579.924 287.778 577.106C289.729 570.759 291.582 565.554 293.336 561.492L299.128 548.258C308.865 537.607 314.761 530.355 316.817 526.504C319.792 520.788 321.064 516.001 320.633 512.14C320.533 504.79 315.878 494.641 306.667 481.691C314.152 471.828 317.69 464.28 317.28 459.047L317.256 456.488L313.929 448.211L309.741 440.908C304.267 432.829 296.98 426.802 287.878 422.827C278.518 419.559 268.921 417.561 259.089 416.833Z" fill="#CD1180"/>
<path d="M208.509 427.435L211.023 427.742C221.902 428.845 231.211 431.035 238.95 434.315C245.814 437.051 256.314 443.627 270.45 454.042C267.739 447.618 266.376 441.435 266.362 435.494C266.109 430.039 267.07 419.128 269.246 402.76C293.555 407.801 307.256 407.347 310.347 401.398C311.783 399.487 311.858 395.706 310.574 390.055C313.518 388.584 315.211 386.785 315.652 384.658C315.697 383.338 314.815 381.764 313.005 379.934C316.676 378.569 318.435 377.211 318.281 375.861C318.482 374.63 316.795 372.114 313.219 368.315C318.967 366.154 321.459 363.895 320.695 361.538C320.284 359.339 317.443 355.664 312.171 350.514C311.358 349.477 310.742 348.223 310.322 346.751C309.936 344.745 309.796 343.433 309.902 342.815L311.294 331.334C311.597 327.521 311.685 325.184 311.556 324.323C311.469 321.07 310.786 317.759 309.507 314.39C306.396 306.838 299.613 297.501 289.159 286.377C281.326 290.086 275.782 293.767 272.526 297.422C271.405 298.775 270.447 300.188 269.65 301.659C266.625 307.997 264.433 312.034 263.075 313.768C254.546 325.241 246.742 335.908 239.66 345.77C234.295 342.03 230.606 342.247 228.594 346.422C225.763 351.819 226.355 357.685 230.37 364.02L224.017 383.626C224.063 391.551 223.553 397.317 222.486 400.923C221.231 406.833 216.572 415.671 208.509 427.435Z" fill="#FFC4A4"/>
<path d="M301.395 334.196C299.503 334.155 298.068 334.172 297.089 334.244C296.696 334.271 296.312 334.309 295.936 334.358L295.379 334.443C295.013 334.505 294.659 334.583 294.316 334.676C293.61 334.859 292.825 335.183 291.958 335.648C291.125 336.111 290.163 336.751 289.072 337.57L301.395 334.196Z" fill="black" fill-opacity="0.996078"/>
<path d="M299.589 341.353L290.445 345.409L300.428 346.484C300.662 345.524 300.722 344.755 300.609 344.176C300.536 343.614 300.196 342.673 299.589 341.353Z" fill="white" fill-opacity="0.996078"/>
<path d="M299.839 341.336L295.765 344.751L300.347 346.654C300.698 345.672 300.833 344.881 300.754 344.28C300.748 344.065 300.663 343.675 300.5 343.109C300.376 342.701 300.156 342.11 299.839 341.336Z" fill="black" fill-opacity="0.996078"/>
<path d="M277.388 295.148L275.568 302.515C268.87 329.939 263.571 349.297 259.671 360.589C257.436 367.144 255.289 372.194 253.231 375.737C251.176 379.237 249.183 381.673 247.253 383.047C244.367 384.941 241.534 385.938 238.753 386.039C242.186 380.308 245.317 374.802 248.145 369.52C249.994 366.027 251.484 362.801 252.616 359.84C253.171 358.367 253.603 356.986 253.912 355.697L254.271 353.841C254.593 351.482 254.513 349.422 254.03 347.662C253.499 345.408 252.066 342.765 249.731 339.732C244.817 339.302 240.632 338.623 237.176 337.697C234.793 336.757 233.612 336.109 233.632 335.752C233.16 335.214 232.957 334.583 233.024 333.861C233.429 331.625 236.255 328.568 241.501 324.69C245.589 321.555 252.975 316.601 263.66 309.829L277.388 295.148Z" fill="black" fill-opacity="0.996078"/>
<path d="M297.172 281.517L302.651 305.263C291.737 308.101 280.823 310.94 269.909 313.778C259.079 317.852 248.248 321.925 237.417 325.999L297.172 281.517Z" fill="black" fill-opacity="0.996078"/>
<path d="M257.944 288.322L248.313 292.241C244.954 297.162 242.699 301.652 241.546 305.712C241.271 307.022 241.282 308.222 241.578 309.31L242.299 310.834C242.943 311.786 243.995 312.579 245.457 313.213C247.231 314.16 251.159 314.724 257.241 314.906C259.239 314.964 262.296 314.929 266.411 314.801C283.895 313.929 293.402 313.536 294.932 313.622C300.259 313.553 304.551 313.813 307.807 314.402C309.97 314.798 311.807 315.325 313.319 315.983L315.393 317.048C316.629 317.817 317.637 318.678 318.419 319.63C320.503 322.591 321.71 325.907 322.04 329.576C318.284 312.179 315.488 301.584 313.651 297.79C310.856 290.947 308.045 286.731 305.218 285.142C302.143 283.168 298.724 282.34 294.961 282.657C291.563 282.874 287.23 283.751 281.964 285.29L257.944 288.322Z" fill="black" fill-opacity="0.996078"/>
<path d="M223.948 366.971L255.848 446.032C260.894 461.618 264.089 472.05 265.433 477.327C267.554 485.918 268.539 490.581 268.39 491.318C268.683 493.803 268.654 495.736 268.302 497.117L267.478 498.681C266.441 499.88 264.269 499.225 260.963 496.716C252.402 489.553 240.768 475.588 226.059 454.822C211.35 434.055 199.945 414.335 191.843 395.661C189.516 389.888 187.851 384.621 186.847 379.86L185.747 373.03C185.314 368.707 185.363 364.751 185.892 361.164C186.973 352.012 192.191 342.035 201.544 331.232L223.948 366.971Z" fill="black" fill-opacity="0.996078"/>
<path d="M220.565 583.01L224.122 585.679L223.819 585.372C223.511 585.087 223.31 584.908 223.217 584.835C222.911 584.575 222.552 584.288 222.142 583.973C221.503 583.524 220.977 583.203 220.565 583.01Z" fill="black"/>
<path d="M567.742 363.674L569.528 363.738L571.314 363.802C570.211 394.518 569.107 425.234 568.004 455.949C566.813 455.907 565.622 455.864 564.432 455.822C565.535 425.106 566.639 394.39 567.742 363.674Z" fill="#883A32"/>
<path d="M574.52 366.146L576.151 363.79C584.917 351.3 590.601 340.81 593.204 332.321C597.001 321.489 598.275 310.92 597.025 300.613C596.798 297.47 595.205 293.158 592.246 287.676C590.404 284.693 588.411 282.107 586.267 279.919C584.122 277.73 582.116 275.96 580.248 274.608C576.94 272.09 573.948 270.759 571.272 270.617C566.946 270.422 563.901 271.46 562.136 273.731C561.57 274.6 561.238 275.742 561.14 277.156C560.933 277.742 561.158 281.742 561.814 289.156C561.764 291.588 561.545 293.232 561.156 294.087C560.997 294.944 560.139 296.58 558.582 298.994C558.739 298.967 556.298 302.114 551.258 308.432C549.394 310.955 548.348 312.453 548.12 312.924C546.789 315.295 546.137 316.658 546.162 317.015C545.913 317.829 545.831 318.606 545.917 319.347C546.148 322.137 549.694 324.489 556.555 326.403C556.66 327.222 556.629 328.003 556.46 328.746C556.619 328.615 556.029 330.153 554.691 333.359C554.492 333.973 554.411 334.537 554.446 335.051C554.506 336.17 555.578 337.249 557.663 338.289C556.054 341.011 555.487 342.95 555.961 344.105C556.273 344.921 557.611 345.689 559.974 346.411C560.817 347.997 561.363 349.234 561.613 350.122C561.919 351.367 562.006 352.26 561.872 352.803C561.947 352.942 561.549 354.25 560.678 356.729L560.375 358.588C560.365 359.908 560.756 361.196 561.549 362.454C564.887 367.747 569.211 368.978 574.52 366.146Z" fill="#FFB093" fill-opacity="0.996078"/>
<path d="M581.46 297.217L574.312 292.461C573.706 293.782 573.436 294.796 573.503 295.503C573.504 296.202 573.875 297.297 574.617 298.787L581.46 297.217Z" fill="white" fill-opacity="0.996078"/>
<path d="M574.299 292.5L574.369 292.532C574.829 292.728 575.201 292.931 575.487 293.142C575.72 293.311 575.922 293.525 576.094 293.784C576.427 294.323 576.609 295.096 576.639 296.101C576.667 296.844 576.669 297.626 576.644 298.449L574.731 298.949C574.227 298.146 573.882 297.522 573.695 297.075C573.521 296.628 573.431 296.36 573.424 296.27C573.382 296.091 573.354 295.912 573.342 295.733C573.33 295.554 573.333 295.374 573.352 295.195C573.346 295.105 573.401 294.836 573.515 294.388C573.642 293.938 573.903 293.309 574.299 292.5Z" fill="black" fill-opacity="0.996078"/>
<path d="M566.055 281.729L580.98 288.582C576.347 287.297 573.257 286.494 571.711 286.173C570.027 285.794 568.272 285.546 566.447 285.43L566.055 281.729Z" fill="black" fill-opacity="0.996078"/>
<path d="M554.439 334.762C559.838 336.206 565.236 337.65 570.635 339.093C566.888 341.474 563.142 343.855 559.395 346.236C557.573 345.654 556.432 344.95 555.973 344.126C555.487 342.95 556.051 341.004 557.663 338.289C555.518 337.188 554.446 336.109 554.446 335.051C554.44 334.956 554.438 334.86 554.439 334.762Z" fill="#FF0000" fill-opacity="0.133333"/>
<path d="M560.107 323.458L559.63 323.236C558.676 322.78 557.717 322.381 556.754 322.041C556.432 321.933 556.109 321.837 555.785 321.753L555.298 321.641C554.973 321.574 554.646 321.524 554.318 321.492C553.305 321.415 552.451 321.459 551.757 321.623L551.468 321.704L551.244 321.796L551.095 321.896L551.03 322L551.059 322.109C551.166 322.204 551.236 322.254 551.271 322.259L551.571 322.368L551.984 322.475L552.501 322.58C552.88 322.649 553.314 322.717 553.804 322.784C555.001 322.951 557.102 323.176 560.107 323.458Z" fill="black" fill-opacity="0.513726"/>
<path d="M574.52 366.146L576.151 363.79C584.917 351.3 590.601 340.81 593.204 332.321C597.001 321.489 598.275 310.92 597.025 300.613C596.798 297.47 595.205 293.158 592.246 287.676C590.404 284.693 588.411 282.107 586.267 279.919C584.122 277.73 582.116 275.96 580.248 274.608C576.94 272.089 573.948 270.759 571.272 270.617C566.947 270.422 563.901 271.46 562.136 273.731C561.57 274.6 561.238 275.741 561.14 277.156C560.933 277.742 561.158 281.742 561.814 289.156C561.764 291.588 561.545 293.231 561.156 294.086C560.997 294.944 560.139 296.58 558.582 298.994C558.739 298.967 556.298 302.113 551.258 308.432C549.394 310.955 548.348 312.453 548.12 312.924C546.789 315.294 546.137 316.658 546.162 317.015C545.913 317.828 545.831 318.606 545.917 319.347C546.148 322.137 549.694 324.489 556.555 326.403C556.66 327.222 556.629 328.003 556.46 328.746C556.619 328.615 556.029 330.153 554.691 333.359C554.493 333.973 554.411 334.537 554.446 335.051C554.506 336.17 555.579 337.249 557.663 338.288C556.054 341.011 555.487 342.949 555.961 344.104C556.274 344.92 557.611 345.689 559.974 346.411C560.817 347.997 561.363 349.234 561.613 350.122C561.919 351.367 562.006 352.26 561.872 352.802C561.947 352.941 561.549 354.25 560.678 356.728L560.375 358.589C560.365 359.908 560.756 361.197 561.549 362.454C564.887 367.747 569.211 368.978 574.52 366.146Z" fill="#FFC4A4"/>
<path d="M581.461 297.217L574.312 292.461C573.706 293.782 573.436 294.796 573.503 295.503C573.504 296.202 573.875 297.296 574.617 298.787L581.461 297.217Z" fill="white"/>
<path d="M574.299 292.5L574.369 292.531C574.829 292.728 575.202 292.931 575.488 293.142C575.72 293.311 575.922 293.525 576.094 293.784C576.427 294.323 576.609 295.096 576.639 296.101C576.667 296.844 576.669 297.626 576.644 298.448L574.731 298.949C574.227 298.146 573.882 297.522 573.695 297.075C573.521 296.628 573.431 296.359 573.424 296.269C573.382 296.091 573.354 295.912 573.342 295.733C573.33 295.554 573.333 295.374 573.352 295.195C573.346 295.105 573.401 294.836 573.515 294.387C573.642 293.938 573.903 293.309 574.299 292.5Z" fill="black"/>
<path d="M566.055 281.729V281.731L580.98 288.582C576.346 287.297 573.256 286.494 571.71 286.173C570.027 285.794 568.272 285.546 566.446 285.43L566.055 281.729Z" fill="black" fill-opacity="0.996078"/>
<path d="M554.439 334.762C559.838 336.206 565.236 337.65 570.635 339.093C566.888 341.474 563.142 343.855 559.395 346.236C557.573 345.654 556.432 344.95 555.972 344.126C555.487 342.95 556.051 341.004 557.663 338.288C555.518 337.188 554.446 336.109 554.446 335.051C554.44 334.956 554.438 334.86 554.439 334.762Z" fill="#FF0000" fill-opacity="0.133333"/>
<path d="M560.107 323.458L559.63 323.236C558.676 322.78 557.717 322.382 556.754 322.042C556.432 321.933 556.109 321.837 555.785 321.753L555.299 321.641C554.973 321.574 554.646 321.524 554.318 321.492C553.305 321.415 552.451 321.459 551.757 321.623L551.468 321.704L551.244 321.796L551.095 321.896L551.03 322L551.06 322.109C551.166 322.204 551.236 322.254 551.271 322.258L551.571 322.368L551.984 322.475L552.501 322.58C552.88 322.649 553.314 322.717 553.804 322.784C555.001 322.951 557.102 323.176 560.107 323.458Z" fill="#FF9377"/>
<path d="M563.347 466.132L565.133 466.197L566.919 466.262C566.475 478.63 566.03 490.998 565.586 503.367C564.395 503.324 563.204 503.282 562.014 503.239C562.458 490.87 562.902 478.501 563.347 466.132Z" fill="#883A32"/>
<path d="M555.624 326.551L580.693 333.87L582.423 360.14L573.886 367.919L567.724 372.544L556.22 363.245L560.02 346.782L571.772 339.154L555.624 326.551Z" fill="black"/>
<path d="M449.535 398.048C448.146 398.163 447.049 399.028 446.139 400.758C445.91 401.198 445.65 401.651 445.553 401.768C445.456 401.885 445.329 402.122 445.262 402.293C445.194 402.463 444.955 402.853 444.73 403.159C443.844 404.357 443.53 404.849 443.283 405.448C443.137 405.796 442.895 406.31 442.74 406.6C442.595 406.891 442.457 407.192 442.444 407.267C442.429 407.351 442.308 407.559 442.17 407.747C442.032 407.934 441.914 408.124 441.904 408.179C441.894 408.235 441.788 408.408 441.655 408.568C441.532 408.728 441.363 409.044 441.295 409.272C441.084 409.887 440.573 410.967 440.305 411.352C440.074 411.695 439.274 412.841 438.675 413.705C438.497 413.962 438.288 414.232 438.21 414.296C437.769 414.689 436.908 416.409 436.559 417.603C436.442 418.004 436.28 418.446 436.2 418.576C436.119 418.715 436.021 419.005 435.983 419.228C435.884 419.804 434.987 422.351 434.754 422.703C434.649 422.867 434.463 423.228 434.34 423.494C434.218 423.76 433.984 424.285 433.824 424.66C433.654 425.033 433.465 425.412 433.393 425.495C433.232 425.707 432.691 427.348 432.446 428.388C432.208 429.381 431.947 430.121 431.681 430.612C431.569 430.813 431.448 431.127 431.416 431.313C431.384 431.499 431.254 431.87 431.131 432.135C431.009 432.402 430.779 433.071 430.637 433.621C430.485 434.17 430.335 434.651 430.288 434.701C430.227 434.776 430.127 435.085 429.572 437.087C429.141 438.592 428.766 439.103 428.239 438.878C428.026 438.784 427.48 438.058 427.506 437.909C427.514 437.863 427.426 437.647 427.309 437.435C427.193 437.223 427.035 436.861 426.949 436.636C426.698 435.922 426.355 434.8 426.321 434.603C426.3 434.504 426.261 434.344 426.227 434.261C426.009 433.745 425.732 432.347 425.734 431.782C425.737 431.544 425.717 431.157 425.682 430.912C425.599 430.227 425.591 427.88 425.683 427.34C425.72 427.069 425.721 426.676 425.682 426.459C425.439 425.249 425.447 424.647 425.736 423.356C426.381 420.383 426.694 419.23 426.93 418.859C427.061 418.652 427.286 418.125 427.437 417.692C427.653 417.049 427.696 416.798 427.677 416.297C427.659 415.508 427.211 413.938 426.794 413.186C426.253 412.212 425.299 411.636 424.366 411.715C423.908 411.761 422.999 412.314 422.954 412.574C422.94 412.658 422.8 412.911 422.656 413.136C422.427 413.47 422.321 413.806 422.038 415.06C421.856 415.899 421.601 416.823 421.465 417.115C421.338 417.41 421.174 417.918 421.116 418.253C421.059 418.588 420.876 419.15 420.708 419.514C420.54 419.877 420.373 420.347 420.338 420.551C420.292 420.764 420.194 421.111 420.107 421.335C420.007 421.586 419.919 422.155 419.866 422.855C419.79 423.799 419.726 424.114 419.455 424.91C419.175 425.704 419.001 426.603 418.274 430.778C417.267 436.58 417.268 435.853 418.216 437.969C418.885 439.482 418.937 439.625 419.183 440.367C419.296 440.712 419.502 441.35 419.655 441.798C419.799 442.244 419.963 442.684 420.023 442.781C420.084 442.868 420.121 442.989 420.113 443.036C420.103 443.091 420.183 443.297 420.283 443.496C420.441 443.801 420.936 445.044 421.328 446.107C421.452 446.445 421.986 448.241 422.194 449.033C422.368 449.696 422.48 450.433 422.441 450.666C422.423 450.768 422.45 451.002 422.492 451.201C422.536 451.391 422.576 452.049 422.576 452.662C422.592 453.631 422.562 453.856 422.386 454.324C422.267 454.629 422.105 455.07 422.014 455.323C421.924 455.566 421.773 455.885 421.672 456.03C421.581 456.167 421.428 456.448 421.337 456.643C421.246 456.838 421.018 457.268 420.817 457.607C420.616 457.936 420.383 458.404 420.293 458.647C420.109 459.104 419.502 460.186 419.345 460.322C419.288 460.37 419.019 460.822 418.751 461.322C418.045 462.646 417.846 462.966 417.667 463.175C417.573 463.274 417.448 463.501 417.38 463.671C417.313 463.842 417.034 464.292 416.767 464.677C416.489 465.069 416.262 465.442 416.251 465.508C416.24 465.573 416.122 465.754 415.991 465.903C415.86 466.053 415.746 466.216 415.738 466.262C415.708 466.439 413.964 468.897 413.83 468.951C413.788 468.972 413.696 469.119 413.639 469.282C413.495 469.621 412.938 470.464 412.737 470.63C412.659 470.694 412.547 470.846 412.487 470.97C412.427 471.094 412.268 471.296 412.151 471.42C412.025 471.542 411.469 472.27 410.917 473.027C409.425 475.078 409.029 475.489 406.806 477.281C404.027 479.523 403.116 480.027 401.554 480.257C401.093 480.321 400.503 480.411 400.227 480.459C399.961 480.5 399.362 480.589 398.901 480.653C398.438 480.727 397.991 480.822 397.896 480.873C397.809 480.934 397.687 480.971 397.641 480.963C397.594 480.955 397.092 481.261 396.53 481.634C395.966 482.016 395.484 482.316 395.446 482.31C395.418 482.305 395.073 482.59 394.677 482.943C394.292 483.289 393.935 483.582 393.894 483.594C393.854 483.606 393.472 483.933 393.048 484.34C392.626 484.736 392.015 485.282 391.692 485.542C391.37 485.803 391.038 486.12 390.941 486.237C390.624 486.633 388.739 488.349 388.106 488.805C387.842 488.998 387.444 489.313 387.218 489.514C386.529 490.123 383.259 496.23 384.26 496.498C385.267 496.777 385.99 496.519 386.03 496.545C389.329 498.678 390.665 495.086 402.533 497.125C414.067 499.108 423.514 500.693 423.521 500.656C423.529 500.609 423.636 500.541 423.766 500.507C423.889 500.46 424.407 500.291 424.906 500.118C425.414 499.947 426.157 499.692 426.561 499.57C426.967 499.438 427.357 499.285 427.424 499.229C427.491 499.174 427.575 499.131 427.622 499.139C427.687 499.15 428.209 498.953 428.84 498.678C429.916 498.212 430.476 497.963 430.616 497.872C430.862 497.723 432.421 497.235 432.863 497.167C433.079 497.137 433.366 497.081 433.509 497.029C433.662 496.979 433.829 496.95 433.876 496.958C433.978 496.976 435.645 496.525 436.135 496.35C436.278 496.298 436.684 496.167 437.047 496.057C437.411 495.947 437.902 495.763 438.14 495.661C438.379 495.549 438.717 495.425 438.908 495.371C439.088 495.326 439.446 495.196 439.704 495.087C439.962 494.978 440.424 494.799 440.738 494.699C441.053 494.591 441.513 494.421 441.762 494.31C442.137 494.136 442.83 493.891 443.793 493.577C444.361 493.397 446.934 492.69 446.999 492.701C447.045 492.71 447.139 492.668 447.207 492.603C447.285 492.54 447.458 492.483 447.594 492.469C447.729 492.463 448.389 492.299 449.064 492.108C449.74 491.909 450.39 491.743 450.509 491.725C450.636 491.708 450.951 491.6 451.211 491.482C451.473 491.354 451.785 491.207 451.91 491.152C452.345 490.958 452.959 490.671 453.482 490.416C453.773 490.284 454.263 490.053 454.573 489.914C454.883 489.786 455.329 489.585 455.557 489.48C455.786 489.376 456.138 489.226 456.332 489.154C457.19 488.842 458.881 488.194 459.304 488.018C459.563 487.909 459.934 487.752 460.128 487.68C460.477 487.549 461.36 487.145 461.688 486.962C461.774 486.91 462.206 486.678 462.642 486.427C463.076 486.186 463.571 485.926 463.737 485.849C464.431 485.547 464.586 485.478 464.852 485.38C465.004 485.33 465.283 485.215 465.48 485.125C465.667 485.041 466.177 484.861 466.612 484.725C467.139 484.557 467.641 484.308 468.13 483.971C469.056 483.316 469.373 482.758 469.796 481.02C469.947 480.366 470.136 479.767 470.2 479.673C470.272 479.589 470.397 479.247 470.49 478.928C470.689 478.215 471.224 477.052 471.436 476.878C471.516 476.806 471.674 476.555 471.791 476.317C472.635 474.528 472.934 474.014 473.441 473.402C474.085 472.612 475.403 470.79 475.77 470.163C476.85 468.338 477.025 467.707 476.673 467.025C476.449 466.603 475.864 466.158 475.437 466.084C475.111 466.028 474.499 465.578 474.444 465.339C474.42 465.258 474.508 464.411 474.634 463.456C474.876 461.602 475.006 459.508 474.93 458.614C474.905 458.313 474.914 457.922 474.943 457.755C475.046 457.159 474.684 456.197 474.008 455.286C473.668 454.816 473.342 454.425 473.296 454.417C473.24 454.407 473.059 454.232 472.874 454.028C472.696 453.835 472.462 453.583 472.363 453.49C472.264 453.397 471.869 453.023 471.491 452.66C470.322 451.55 470.071 451.334 469.679 451.056C469.515 450.951 469.062 450.634 468.688 450.359C468.303 450.092 467.95 449.859 467.894 449.849C467.792 449.832 466.673 449.046 465.914 448.446C465.661 448.249 465.005 447.773 464.467 447.393C463.931 447.004 463.343 446.578 463.173 446.453C462.768 446.134 462.089 446.018 461.311 446.142C460.623 446.244 459.671 446.492 459.427 446.632C459.246 446.736 457.417 447.292 456.243 447.607C455.801 447.723 455.369 447.84 455.287 447.874C455.205 447.908 454.841 448.018 454.479 448.118C454.117 448.219 453.713 448.341 453.572 448.384C453.429 448.436 453.001 448.583 452.605 448.716C452.22 448.841 451.708 449.031 451.48 449.135C450.648 449.519 450.009 449.667 449.542 449.597C448.972 449.518 448.791 449.343 448.168 448.288C447.747 447.564 447.623 447.17 447.537 446.111C447.488 445.557 447.925 443.573 448.163 443.25C448.273 443.106 448.671 442.466 449.049 441.823C449.438 441.181 449.94 440.376 450.168 440.052C450.398 439.718 450.632 439.356 450.69 439.241C450.748 439.127 450.992 438.824 451.227 438.568C451.826 437.923 451.851 437.889 452.643 436.79C453.584 435.497 453.77 435.251 454.012 435.015C454.151 434.876 454.479 434.3 454.887 433.489C455.032 433.198 455.195 432.863 455.264 432.74C455.452 432.37 456.527 430.965 456.807 430.726C456.954 430.598 457.243 430.313 457.433 430.096C457.634 429.872 457.918 429.557 458.082 429.384C458.797 428.626 459.135 428.273 459.225 428.192C459.28 428.154 459.398 428.021 459.486 427.902C459.572 427.793 459.824 427.548 460.046 427.376C460.448 427.043 460.94 426.572 461.379 426.083C462.007 425.377 462.338 425.07 462.804 424.699C463.586 424.106 464.586 423.186 465.404 422.331C466.188 421.498 466.852 420.923 468.019 420.042C468.416 419.736 469.031 419.22 469.395 418.889C471.763 416.701 472.711 415.916 472.935 415.955C473.056 415.976 474.131 414.954 474.388 414.577C474.539 414.363 474.808 413.969 474.988 413.703C475.168 413.437 475.332 413.149 475.345 413.074C475.358 413 475.491 412.726 475.641 412.465C476.252 411.421 476.519 409.752 476.254 408.73C475.848 407.195 474.012 406.123 472.67 406.63C472.128 406.834 471.164 407.425 470.764 407.806C470.592 407.968 470.039 408.399 469.545 408.765C469.05 409.139 468.391 409.629 468.084 409.854C467.767 410.087 467.245 410.447 466.915 410.64C466.584 410.841 466.036 411.245 465.707 411.543C465.369 411.839 464.705 412.357 464.225 412.696C463.757 413.027 463.095 413.536 462.767 413.824C462.217 414.295 461.365 414.962 460.666 415.464C460.513 415.572 460.298 415.765 460.191 415.89C460.073 416.014 459.877 416.152 459.745 416.197C459.154 416.402 457.612 417.132 457.12 417.431C455.523 418.42 453.638 419.858 453.031 420.549C452.448 421.215 450.468 422.761 447.841 424.617C446.206 425.773 445.737 426.162 444.963 427.043C444.866 427.161 444.59 427.544 444.366 427.898C443.326 429.492 442.975 429.862 442.603 429.798C442.454 429.772 442.297 429.688 442.253 429.604C442.106 429.349 442.198 428.646 442.492 427.825C442.654 427.384 442.857 426.596 442.948 426.065C443.037 425.544 443.167 425.011 443.245 424.89C443.314 424.768 443.497 424.206 443.652 423.639C443.807 423.072 444.083 422.248 444.262 421.819C444.433 421.379 444.608 420.863 444.643 420.659C444.678 420.454 444.836 419.983 445.007 419.601C445.167 419.226 445.494 418.382 445.719 417.741C446.168 416.468 446.32 416.082 446.533 415.678C446.616 415.53 446.851 415.053 447.069 414.622C447.279 414.179 447.542 413.707 447.655 413.554C447.756 413.408 447.91 413.129 447.99 412.941C448.311 412.134 448.785 411.105 448.895 410.961C448.967 410.878 449.12 410.492 449.241 410.121C449.355 409.738 449.535 409.3 449.629 409.144C449.731 408.998 449.875 408.659 449.956 408.414C450.04 408.141 450.39 407.56 450.816 406.973C451.275 406.362 451.612 405.797 451.728 405.454C451.84 405.137 452.029 404.097 452.194 402.909C452.473 400.956 452.476 400.88 452.319 400.288C452.11 399.553 451.518 398.819 450.743 398.37C450.203 398.057 450.011 398.005 449.535 398.048ZM463.222 458.201C463.555 458.44 463.886 458.689 463.952 458.748C464.448 459.149 464.994 459.482 465.383 459.616C466.18 459.878 466.554 460.267 466.793 461.104C467.03 461.901 467.201 462.686 467.179 462.817C467.167 462.882 467.195 463.222 467.253 463.557C467.35 464.216 467.615 464.682 468.19 465.231C468.958 465.948 469.658 466.776 469.68 466.981C469.732 467.517 469.28 467.861 468.067 468.236C467.308 468.47 466.528 469.054 465.466 470.164C465.3 470.346 464.55 470.926 463.816 471.461C463.083 471.995 462.354 472.559 462.202 472.716C461.619 473.324 461.269 473.8 461.232 474.014C461.14 474.553 460.974 474.793 460.59 474.966C460.372 475.063 460.071 475.145 459.915 475.157C459.675 475.163 459.414 475.233 458.129 475.635C457.966 475.693 457.667 475.814 457.468 475.914C457.269 476.014 456.956 476.161 456.771 476.235C456.586 476.308 456.122 476.506 455.728 476.678C454.855 477.074 453.191 477.678 453.07 477.657C453.014 477.648 452.91 477.697 452.832 477.76C452.597 477.959 451.563 477.734 451.042 477.366C450.666 477.101 449.884 476.191 449.228 475.273C449.13 475.123 448.824 474.725 448.565 474.393C448.306 474.062 447.826 473.347 447.495 472.821C447.175 472.287 446.865 471.803 446.818 471.747C446.466 471.285 445.39 469.079 445.256 468.52C445.145 468.108 445.267 467.564 445.515 467.348C445.629 467.243 446.022 466.851 446.383 466.473C446.745 466.094 447.092 465.752 447.149 465.694C447.71 465.217 448.244 464.676 448.562 464.271C448.771 464.001 449.01 463.726 449.09 463.654C449.177 463.592 449.252 463.49 449.26 463.443C449.296 463.229 450.872 461.977 451.668 461.521C451.774 461.462 452.104 461.269 452.392 461.099C452.924 460.788 453.806 460.452 454.001 460.485C454.224 460.523 456.765 459.782 457.54 459.446C457.872 459.302 458.169 459.19 458.206 459.197C458.234 459.201 458.428 459.129 458.624 459.048C458.831 458.959 459.411 458.705 459.929 458.478C461.482 457.797 461.958 457.649 462.35 457.706C462.499 457.732 462.892 457.953 463.222 458.201Z" fill="#FFC4A4"/>
<path d="M309.716 459.827L304.405 468.717C296.909 481.271 288.008 494.085 277.703 507.158C282.249 510.99 288.507 518.023 296.475 528.258L293.921 516.882L295.078 517.347C299.348 519.919 313.2 533.159 336.635 557.066L352.301 561.227C369.603 549.176 388.763 535.004 409.781 518.713C420.271 510.333 426.89 504.319 429.639 500.67C425.283 495.812 418.099 485.891 408.087 470.907L354.522 514.461C351.165 512.318 347.816 509.751 344.476 506.762C342.796 505.796 337.805 500.36 329.503 490.455C322.873 481.938 316.277 471.729 309.716 459.827Z" fill="#CD1180"/>
<path d="M756.394 589.026L754.027 586.016L754.046 586.02L754.031 586.017C779.157 591.986 803.918 597.857 827.736 598.796C830.115 598.89 832.498 598.935 834.863 598.935C856.156 598.935 876.851 595.344 897.849 591.692C899.536 591.399 901.14 592.528 901.433 594.214C901.727 595.9 900.597 597.505 898.911 597.798C877.997 601.435 856.777 605.132 834.863 605.132C832.415 605.132 829.961 605.086 827.492 604.989C802.962 604.022 777.597 597.985 752.598 592.046L752.583 592.043L752.563 592.038C751.182 591.71 750.196 590.462 750.196 589.027C750.196 587.315 751.584 585.927 753.295 585.927C755.006 585.927 756.394 587.314 756.394 589.026Z" fill="black"/>
<path d="M750.871 619.685C749.213 619.685 747.839 620.997 747.777 622.668C747.721 624.146 748.718 625.457 750.168 625.801C763.085 628.871 776.1 631.966 789.047 634.374C789.047 634.374 789.047 634.375 789.047 634.376C801.165 636.628 813.215 638.28 825.07 638.747C825.19 638.752 825.334 638.758 825.455 638.762C827.789 638.849 830.115 638.89 832.433 638.89C840.459 638.89 848.388 638.395 856.242 637.589L856.586 631.324L856.577 631.325C848.58 632.172 840.556 632.693 832.449 632.693C830.202 632.693 827.947 632.653 825.686 632.569C825.567 632.564 825.434 632.559 825.314 632.555C813.543 632.091 801.541 630.422 789.379 628.132L789.371 628.133C776.97 625.795 764.394 622.811 751.724 619.801C751.676 619.79 751.635 619.779 751.594 619.769L751.579 619.767C751.391 619.722 751.193 619.695 750.989 619.687C750.949 619.686 750.91 619.685 750.871 619.685Z" fill="black"/>
<path d="M757.512 562.122L755.115 559.105L755.131 559.109L755.145 559.112C780.272 565.082 805.036 570.954 828.854 571.893L828.861 571.893L828.87 571.894L828.863 571.893C831.235 571.987 833.622 572.032 835.981 572.032C857.273 572.032 877.97 568.44 898.968 564.789C900.654 564.495 902.258 565.624 902.552 567.311C902.845 568.997 901.716 570.601 900.029 570.894C879.116 574.531 857.894 578.229 835.981 578.229C833.538 578.229 831.083 578.183 828.619 578.086L828.612 578.086L828.603 578.086L828.61 578.086C804.079 577.119 778.712 571.081 753.713 565.142L753.727 565.145L753.711 565.141C752.3 564.806 751.314 563.559 751.314 562.123C751.314 560.412 752.702 559.023 754.413 559.023C756.125 559.023 757.512 560.411 757.512 562.122Z" fill="black"/>
<path d="M758.071 535.219L755.674 532.202L755.689 532.205L755.705 532.209L755.72 532.212C780.842 538.181 805.599 544.051 829.413 544.99C831.792 545.083 834.175 545.128 836.54 545.128C857.833 545.128 878.528 541.537 899.526 537.885C901.212 537.592 902.817 538.721 903.11 540.407C903.403 542.093 902.274 543.698 900.588 543.991C879.674 547.628 858.454 551.326 836.54 551.326C834.091 551.326 831.638 551.279 829.169 551.182C804.642 550.215 779.282 544.18 754.287 538.242L754.301 538.245L754.286 538.242L754.27 538.238C752.859 537.903 751.873 536.655 751.873 535.22C751.873 533.509 753.26 532.12 754.972 532.12C756.683 532.12 758.071 533.508 758.071 535.219Z" fill="black"/>
<path d="M759.747 508.315L757.364 505.301L757.375 505.304L757.377 505.304L757.649 505.369L757.648 505.369C782.686 511.317 807.353 517.15 831.09 518.086L831.097 518.087L831.106 518.087L831.098 518.087C833.47 518.18 835.858 518.225 838.216 518.225C859.508 518.225 880.205 514.633 901.203 510.982C902.889 510.688 904.494 511.818 904.787 513.504C905.08 515.19 903.951 516.794 902.265 517.088C881.351 520.725 860.13 524.422 838.216 524.422C835.773 524.422 833.318 524.376 830.855 524.279L830.848 524.279L830.839 524.279L830.846 524.279C806.398 523.315 781.131 517.318 756.215 511.399L756.214 511.398L755.942 511.333L755.944 511.334L755.933 511.331C754.536 510.999 753.55 509.752 753.55 508.316C753.55 506.605 754.937 505.217 756.649 505.217C758.36 505.217 759.747 506.604 759.747 508.315Z" fill="black"/>
<path d="M761.983 481.412L759.612 478.401L759.629 478.405L759.645 478.409L759.633 478.406C784.755 484.375 809.511 490.244 833.325 491.183C835.703 491.277 838.087 491.321 840.451 491.321C861.746 491.321 882.438 487.73 903.438 484.078C905.124 483.785 906.729 484.914 907.022 486.6C907.315 488.287 906.186 489.891 904.5 490.184C883.584 493.821 862.367 497.519 840.451 497.519C838.003 497.519 835.55 497.473 833.081 497.375C808.555 496.409 783.196 490.374 758.201 484.436L758.189 484.433L758.172 484.429L758.156 484.425C756.771 484.096 755.785 482.848 755.785 481.413C755.785 479.702 757.172 478.313 758.884 478.313C760.595 478.313 761.983 479.701 761.983 481.412Z" fill="black"/>
<path d="M763.659 454.509L761.303 451.501L761.318 451.505L761.292 451.498C786.42 457.468 811.182 463.34 835.002 464.279C837.38 464.373 839.763 464.418 842.128 464.418C863.42 464.418 884.117 460.826 905.115 457.175C906.801 456.882 908.406 458.011 908.699 459.697C908.992 461.383 907.863 462.987 906.177 463.281C885.263 466.918 864.042 470.615 842.128 470.615C839.68 470.615 837.227 470.569 834.758 470.472C810.225 469.505 784.861 463.468 759.859 457.528L759.833 457.522L759.818 457.518C758.448 457.193 757.462 455.945 757.462 454.509C757.462 452.798 758.849 451.41 760.561 451.41C762.272 451.41 763.659 452.797 763.659 454.509Z" fill="black"/>
<path d="M767.199 427.605L764.844 424.598L764.858 424.601L764.833 424.595L765.105 424.66C790.141 430.608 814.808 436.44 838.542 437.376C840.92 437.47 843.303 437.514 845.668 437.514C866.961 437.514 887.656 433.923 908.655 430.271C910.341 429.978 911.946 431.107 912.239 432.794C912.532 434.48 911.403 436.084 909.717 436.377C888.802 440.014 867.582 443.712 845.668 443.712C843.219 443.712 840.767 443.666 838.298 443.568C813.853 442.605 788.584 436.608 763.672 430.69L763.398 430.624L763.373 430.618L763.358 430.615C761.988 430.289 761.002 429.042 761.002 427.606C761.002 425.895 762.389 424.506 764.101 424.506C765.812 424.506 767.199 425.894 767.199 427.605Z" fill="black"/>
<path d="M793.061 403.866L787.781 409.066C793.507 410.322 799.225 411.5 804.929 412.54C804.929 412.54 804.929 412.541 804.929 412.541C812.133 413.853 819.306 414.946 826.428 415.695L826.429 415.697C830.849 416.16 835.241 416.493 839.607 416.665C839.727 416.67 839.871 416.675 839.992 416.68C842.326 416.767 844.652 416.808 846.969 416.808L847.091 416.809C852.81 416.805 858.48 416.55 864.107 416.111L864.25 409.885L864.241 409.886C860.208 410.21 856.163 410.437 852.1 410.543L852.091 410.545C850.387 410.588 848.688 410.611 846.986 410.611C844.738 410.611 842.484 410.571 840.223 410.487C840.103 410.482 839.971 410.477 839.851 410.472C832.4 410.179 824.857 409.402 817.24 408.291L817.232 408.292C813.363 407.726 809.467 407.074 805.554 406.354L805.546 406.355C801.41 405.592 797.247 404.755 793.068 403.866H793.061Z" fill="black"/>
<path d="M776.993 400.256C773.401 401.378 769.546 402.591 765.43 403.895C772.87 405.659 780.327 407.428 787.783 409.065L793.061 403.866C787.737 402.732 782.38 401.512 777.001 400.256H776.993Z" fill="black"/>
<path d="M805.695 391.695L804.027 392.11C792.771 395.262 771.886 401.755 741.372 411.589C718.947 470.682 695.421 508.653 670.794 525.501L609.139 478.545C600.136 493.226 592.43 504.613 586.02 512.708C593.252 521.699 622.897 543.427 674.956 577.893L692.385 572.665C720.993 541.558 736.49 526.02 738.876 526.053L700.37 680.467L918.759 679.962L921.293 651.382L893.242 659.199C854.5 658.345 835.652 658.206 836.698 658.784C819.153 659.416 803.025 656.143 788.313 648.965C793.14 551.147 799.201 467.185 806.496 397.08L805.695 391.695Z" fill="#222B32"/>
<path d="M927.715 633.609L937.593 633.313L949.394 629.344L968.261 653.96L957.25 654.501L952.232 652.16L932.462 659.097L927.716 633.619L927.715 633.609Z" fill="white"/>
<path d="M866.014 387.082L881.428 398.162L946.322 419.279L970.377 455.591L1013.94 499.633L1033.42 523.374C1036.25 529.471 1037.85 535.007 1038.43 539.955C1039.66 550.336 1035.43 563.499 1025.89 579.705C1016.51 595.627 997.413 622.335 968.196 659.597L937.149 625.604L954.903 612.494L976.426 585.297L996.115 550.524L951.21 504.369L940.511 492.471L919.706 642.144L888.368 638.2L854.437 671.505L861.443 540.53L862.975 469.219L864.69 389.437L864.654 389.104L866.014 387.082Z" fill="#222B32"/>
<path d="M860.407 641.779C869.649 634.261 876.845 629.573 881.992 627.712C887.274 625.527 893.211 625.064 899.802 626.322C903.969 627.018 910.202 628.932 918.501 632.065L934.352 633.296L940.371 656.378L908.521 671.697L875.987 674.015L862.093 660.242L860.412 641.828L860.407 641.779Z" fill="#FFC4A4"/>
<path d="M831.507 447.604C831.411 447.815 831.314 448.026 831.219 448.238C831.222 448.239 831.225 448.24 831.229 448.241V448.243C831.322 448.028 831.416 447.816 831.511 447.604L831.507 447.604Z" fill="white"/>
<path d="M832.128 446.253L832.077 446.338L832.128 446.254V446.253Z" fill="white"/>
<path d="M891.895 407.413L891.894 407.415C891.894 407.415 891.894 407.415 891.895 407.413Z" fill="black" fill-opacity="0.996078"/>
<path d="M314.769 468.334L315.156 472.977C315.983 482.384 316.572 491.238 316.924 499.539C317.024 502.264 317.071 504.867 317.065 507.347L317.007 510.951C316.939 513.284 316.798 515.448 316.585 517.443C316.367 519.428 316.077 521.244 315.714 522.89L315.125 525.256C314.7 526.756 314.221 528.133 313.69 529.387C312.942 531.226 311.886 533.175 310.524 535.234C311.212 534.393 311.851 533.597 312.439 532.845C315.491 535.811 318.914 539.191 322.708 542.984L314.769 468.334Z" fill="black" fill-opacity="0.168627"/>
<path d="M563.063 406.784C563.607 405.871 563.893 405.378 563.887 405.363C563.816 405.267 553.245 398.773 540.367 390.922L516.966 376.633L488.093 423.702L459.239 470.784L482.819 485.209L506.399 499.635L535.181 452.586C548.636 430.592 559.983 411.95 563.063 406.784ZM544.513 416.142L525.784 446.759L507.054 477.376L544.513 416.142ZM499.787 431.143C499.796 431.127 499.805 431.112 499.816 431.096C499.825 431.081 499.833 431.065 499.843 431.05L499.787 431.143ZM516.16 398.926L478.735 460.104L497.453 429.506L516.16 398.926Z" fill="#26785F"/>
<path d="M565.622 405.552C565.551 405.457 554.98 398.964 542.102 391.113L518.7 376.823L489.827 423.892L460.974 470.974L484.553 485.399L508.133 499.824L536.915 452.776C552.747 426.895 565.663 405.656 565.622 405.552ZM507.567 477.105C505.068 476.146 502.753 476.286 500.402 477.543C499.549 478.007 498.805 478.588 498.305 479.19C497.902 479.722 497.44 480.138 497.312 480.137C496.814 480.145 483.458 471.974 483.408 471.633C483.403 471.474 483.582 470.883 483.818 470.328C484.406 469.028 484.497 466.465 484.029 464.986C483.522 463.483 482.511 461.957 481.388 461.037L480.47 460.294L499.186 429.695L517.893 399.116L519.288 399.633C520.048 399.917 521.076 400.184 521.569 400.225C523.879 400.393 526.884 399.25 528.241 397.669C528.551 397.289 528.968 396.819 529.163 396.627L529.504 396.239L536.483 400.509C544.293 405.287 543.604 404.632 542.822 406.461C542.273 407.783 542.19 409.573 542.6 411.275C543.039 413.1 544.436 415.224 545.699 415.998L546.246 416.332L527.517 446.949L508.787 477.566L507.567 477.105Z" fill="#26785F"/>
<path d="M526.199 443.343C527.096 440.988 527.34 438.129 526.845 435.675C526.354 433.3 525.538 431.583 524 429.606C522.945 428.234 522.647 428 520.478 426.673C518.365 425.38 517.934 425.196 516.382 424.893C513.017 424.208 509.793 424.647 506.978 426.113C501.648 428.894 498.644 435.118 499.815 440.915C501.19 447.694 507.013 452.371 513.804 452.119C519.243 451.919 524.283 448.34 526.199 443.343Z" fill="#26785F"/>
<path d="M525.159 445.449C522.792 449.32 518.442 451.948 513.804 452.119C507.012 452.372 501.19 447.694 499.815 440.915C499.135 437.551 499.861 434.043 501.632 431.148C502.913 429.054 504.741 427.281 506.977 426.113C509.792 424.647 513.016 424.208 516.382 424.893C517.934 425.196 518.365 425.38 520.478 426.673C522.647 428 522.945 428.234 523.999 429.606C525.537 431.583 526.353 433.3 526.845 435.675C527.339 438.129 527.095 440.988 526.198 443.343C525.917 444.077 525.567 444.781 525.159 445.449ZM546.246 416.332L545.699 415.998C544.436 415.224 543.039 413.1 542.6 411.275C542.19 409.573 542.273 407.783 542.822 406.461C543.604 404.632 544.293 405.287 536.483 400.509L529.504 396.239L529.163 396.627C528.967 396.819 528.55 397.289 528.241 397.669C526.883 399.25 523.878 400.393 521.569 400.225C521.076 400.184 520.048 399.917 519.287 399.633L517.893 399.116L480.47 460.294L481.388 461.037C482.511 461.957 483.522 463.483 484.029 464.986C484.497 466.465 484.406 469.028 483.818 470.328C483.581 470.883 483.402 471.474 483.408 471.633C483.458 471.974 496.814 480.145 497.312 480.137C497.44 480.138 497.902 479.722 498.305 479.19C498.804 478.588 499.549 478.007 500.402 477.543C502.753 476.286 505.068 476.146 507.567 477.105L508.787 477.566L546.246 416.332Z" fill="#2AAF86"/>
<path d="M451.26 478.508L460.5 473.526C462.531 471.172 464.511 469.03 466.44 467.102C468.013 465.641 468.94 464.837 469.219 464.69C469.815 464.247 470.391 463.882 470.949 463.596C473.445 462.418 475.194 462.827 476.199 464.824C476.85 466.61 476.313 468.967 474.586 471.894C472.926 474.786 469.783 479.023 465.155 484.606L451.26 478.508Z" fill="#FFC4A4"/>
<path d="M472.672 473.541L473.363 472.911C475.45 471.02 476.771 469.543 477.328 468.48C477.571 468.055 477.751 467.628 477.87 467.201L477.99 466.558C478.057 465.908 477.94 465.255 477.639 464.598C477.48 464.25 477.278 463.916 477.033 463.597C476.789 463.278 476.511 462.984 476.199 462.713L475.712 462.331C475.025 461.841 474.27 461.521 473.447 461.37C472.667 461.202 471.802 461.311 470.853 461.697L470.121 462.088C469.636 462.393 469.156 462.769 468.68 463.215L467.969 463.927C467.497 464.434 467.029 464.987 466.563 465.589C465.863 466.459 464.71 468.12 463.104 470.573L472.672 473.541Z" fill="#FFC4A4"/>
<path d="M464.423 470.965L469.069 462.008C470.982 461.909 472.384 461.95 473.276 462.132C474.378 462.306 475.254 462.789 475.906 463.581C476.548 464.423 476.874 465.53 476.884 466.899C476.814 468.053 476.723 468.763 476.611 469.03C476.489 469.525 476.323 470.029 476.112 470.541C475.381 472.573 473.033 475.763 469.066 480.111L464.423 470.965Z" fill="#FFC4A4"/>
<path d="M471.522 445.325L472.646 451.239L473.769 457.154L471.522 445.325Z" fill="black"/>
</svg>
